<?xml version="1.0" encoding="utf-8"?>
<!-- Generator: Adobe Illustrator 19.1.0, SVG Export Plug-In . SVG Version: 6.00 Build 0)  -->
<svg version="1.1" id="Layer_1" xmlns="http://www.w3.org/2000/svg" xmlns:xlink="http://www.w3.org/1999/xlink" x="0px" y="0px"
	 viewBox="0 0 28 36.2" style="enable-background:new 0 0 28 36.2;" xml:space="preserve">
<style type="text/css">
	.st0{fill:#5AC2B9;}
</style>
<g>
	<g>
		<path class="st0" d="M22.1,29L7.8,29.4l-0.1-3.6L22,25.4L22.1,29L22.1,29z M8.8,28.4L21,28.1l0-1.6L8.7,26.8L8.8,28.4L8.8,28.4z"
			/>
	</g>
	<g>
		<path class="st0" d="M22,26.4L7.7,26.8l-0.4-13c-1.6-0.4-2.7-1.7-2.7-3.2C4.6,8.6,6.2,7,8.4,7c1.2,0,2.3,0.4,3,1.2
			c0.7-0.8,1.8-1.4,2.9-1.4c1.1,0,2.2,0.4,3,1.2C18,7.2,19,6.7,20.2,6.6c2.1-0.1,3.9,1.5,3.9,3.4c0,1.5-1,2.8-2.5,3.3L22,26.4
			L22,26.4z M8.7,25.8L21,25.4l-0.4-12.8l0.4-0.1c1.3-0.3,2.1-1.3,2.1-2.5c0-1.4-1.3-2.5-2.9-2.4c-1.1,0-2,0.6-2.5,1.4l-0.4,0.7
			l-0.4-0.7c-0.5-0.8-1.5-1.3-2.5-1.3c-1.1,0-2.1,0.6-2.5,1.5l-0.4,0.8L11,9.3C10.5,8.5,9.5,7.9,8.4,8c-1.6,0-2.8,1.2-2.8,2.6
			c0,1.2,1,2.2,2.3,2.4L8.3,13L8.7,25.8L8.7,25.8z"/>
	</g>
	<g>
		<polygon class="st0" points="12,26.4 11,26.4 10.7,18.7 11.7,18.7 		"/>
	</g>
	<g>
		<polygon class="st0" points="15.3,26.1 14.3,26.1 14.1,17.2 15,17.1 		"/>
	</g>
	<g>
		<polygon class="st0" points="18.8,26 17.8,26 17.6,18.3 18.6,18.3 		"/>
	</g>
</g>
</svg>
