<?xml version="1.0" encoding="utf-8"?>
<!-- Generator: Adobe Illustrator 19.1.0, SVG Export Plug-In . SVG Version: 6.00 Build 0)  -->
<svg version="1.1" id="Layer_1" xmlns="http://www.w3.org/2000/svg" xmlns:xlink="http://www.w3.org/1999/xlink" x="0px" y="0px"
	 viewBox="-139 329 332 136" style="enable-background:new -139 329 332 136;" xml:space="preserve">
<style type="text/css">
	.st0{enable-background:new    ;}
	.st1{fill:#FFFFFF;}
	.st2{fill:none;}
</style>
<g>
	<g class="st0">
		<path class="st1" d="M-28.4,448.4c-0.1-0.2-0.1-0.3,0.2-0.3c1.2-0.1,2.9-0.5,3.9-0.6c1.1-0.1,1.6,0.3,1.8,1c0.1,0.2,0,0.3-0.2,0.3
			c-1.7,0.1-2.9,0.6-4,0.7C-27.7,449.5-28.2,449.1-28.4,448.4z"/>
		<path class="st1" d="M-21.1,443.8c-0.3-0.3-0.1-0.5,0.2-0.5c0.6-0.1,1.3-0.2,1.9-0.3c0.6-1.3,1.1-2.5,1.4-3
			c0.2-0.3,0.4-0.3,0.5-0.1c0.3,0.6,0.4,1.4,0,2.6c0.9-0.1,1.3,0.2,1.5,0.5c0.2,0.3,0.1,0.4-0.2,0.5c-0.5,0-1.2,0.1-1.8,0.3
			c-0.7,1.6-1.8,4-2.4,6c-0.6,1.7-0.1,3.1,0.8,3.1c1-0.1,2.1-1.8,2.8-3.6c0.1-0.3,0.3-0.4,0.5-0.1c0.2,0.3,0.1,0.8-0.1,1.3
			c-0.2,0.7-1.5,2.9-3.3,3c-1.5,0.1-2.9-1.4-2.1-4.2c0.3-1.2,1.1-3.2,1.9-5.1C-20.4,444.3-20.9,444.1-21.1,443.8z"/>
		<path class="st1" d="M-10.8,452.6c-1.9,0.2-2.5-1.1-2.1-3.2c0.5-2.3,2.2-4.9,1.8-5c-0.3-0.1-2.6,1.7-3.7,4
			c-0.7,1.4-1.3,3.1-1.7,4.6c-0.1,0.2-0.2,0.3-0.4,0.1c-0.4-0.4-0.7-1-0.4-2.4c0.5-2.4,4.3-10.9,5.9-13.4c0.2-0.3,0.4-0.3,0.5,0
			c0.4,0.6,0.4,1.8-0.3,3.3c-0.4,1-1.4,3-2.2,4.6c0.8-1,1.9-1.9,2.5-1.9c0.8,0,1.6,1.1,1.2,2.3c-0.4,1.1-1.3,2.8-1.7,4.1
			c-0.4,1.4-0.2,2.4,0.7,2.3c0.9-0.2,2-1.9,2.5-3.5c0.1-0.2,0.3-0.2,0.4-0.1c0.1,0.2,0.2,0.7-0.1,1.4
			C-8.2,451.1-9.5,452.4-10.8,452.6z"/>
		<path class="st1" d="M-4.9,451.2c1.9-0.1,3.3-2.1,4.2-3.8c0.1-0.2,0.3-0.2,0.4,0c0.1,0.2,0.1,0.8-0.2,1.5c-0.8,1.5-2.4,2.7-4.2,3
			c-2.9,0.4-4.2-2.3-3.1-5.5c1.1-3.1,3.3-4.6,4.5-4c0.6,0.3,1.1,0.6,1.5,1c0.5,0.5,0.5,1.9-0.4,3.2c-1,1.5-2.4,2.3-4.2,1.1
			C-6.8,449.9-6.1,451.3-4.9,451.2z M-3.6,445.8c0.6-1,1-2.3,0.6-2.5c-0.5-0.3-2.3,1.3-3.1,3.5c-0.1,0.1-0.1,0.3-0.1,0.4
			C-5,447.8-4.2,446.7-3.6,445.8z"/>
		<path class="st1" d="M8.8,448c1.1-0.2,1.8,0.1,2.1,0.8c0.1,0.2,0.1,0.3-0.2,0.4c-1.1,0.1-3.6,1-4.9,1.5c-0.5,0.2-0.8,0.2-1-0.1
			c-0.2-0.3-0.6-0.6-0.7-0.9c-0.2-0.4-0.2-0.7-0.1-1.3c0.8-2.9,3.7-10.3,4.9-12.4c0.2-0.3,0.4-0.3,0.6,0c0.3,0.5,0.5,1.5-0.2,3.3
			c-0.9,2.3-2.6,6-3.9,9.9C6.7,448.6,7.9,448.2,8.8,448z"/>
		<path class="st1" d="M12,446.6c0.4-1.7,1.6-4.6,2.3-5.9c0.2-0.3,0.3-0.4,0.5-0.2c0.4,0.3,0.7,1.3,0.3,2.5
			c-0.4,1.1-1.1,2.7-1.5,3.9c-0.4,1.4-0.2,2.3,0.5,2.1c1-0.2,2.1-1.8,2.6-3.5c0.1-0.2,0.3-0.2,0.4,0c0.2,0.3,0.2,0.8,0,1.4
			c-0.5,1.5-1.8,2.6-3.1,2.8C12.2,449.9,11.6,448.5,12,446.6z M16.4,440c-0.3,0.4-0.9,0.4-1.3-0.2c-0.4-0.6-0.4-1.3-0.1-1.7
			c0.3-0.4,1-0.2,1.4,0.3C16.8,439.1,16.7,439.7,16.4,440z"/>
		<path class="st1" d="M17.3,439.4c-0.3-0.3-0.1-0.4,0.2-0.5c0.5-0.1,1.2-0.1,1.8-0.2c0.5-1.3,1.1-2.4,1.4-2.9
			c0.2-0.3,0.4-0.3,0.5-0.1c0.3,0.6,0.4,1.4,0,2.7c1.2-0.2,2.4-0.4,3.3-0.6c0.5-1.3,1-2.3,1.3-2.9c0.2-0.3,0.4-0.3,0.5,0
			c0.3,0.6,0.4,1.4,0,2.6c0.9,0,1.3,0.3,1.5,0.6c0.2,0.3,0.1,0.4-0.2,0.4c-0.4,0-1,0.1-1.7,0.2c-0.7,1.7-1.8,4.1-2.5,6.1
			c-0.6,1.8-0.1,3.1,0.8,3.1c1-0.1,2.1-1.8,2.8-3.6c0.1-0.3,0.3-0.4,0.5-0.1c0.2,0.4,0.1,0.8-0.1,1.3c-0.2,0.7-1.5,2.9-3.3,3
			c-0.9,0.1-1.8-0.5-2.2-1.6c-0.5,0.9-1.5,2.1-2.9,2.2c-1.5,0.1-2.9-1.4-2.1-4.2c0.3-1.2,1.1-3.2,1.9-5.1
			C18.1,439.9,17.6,439.6,17.3,439.4z M20.8,439.6c-0.7,1.6-1.7,3.8-2.3,5.8c-0.6,1.7-0.1,3.1,0.8,3.1c1-0.1,2.1-2,2.7-3.7
			c0.4-1.3,1.2-3.6,2.1-5.7C22.9,439.2,21.7,439.5,20.8,439.6z"/>
		<path class="st1" d="M29,447.3c1.1,0,2.5-1.9,3.2-3.7c0.1-0.3,0.4-0.4,0.5-0.1c0.2,0.4,0.1,0.9-0.1,1.4c-0.2,0.7-1.7,2.8-3.5,3
			c-1.6,0.1-2.5-0.9-2.3-3.4c0.4-4.1,2.5-8.5,4.5-11.1c0.3-0.4,0.6-0.5,1-0.2c0.7,0.5,1,1.3,0.8,2.4c-0.4,2.9-2.6,5.9-4.5,7.5
			C28,445.4,28,447.3,29,447.3z M32.4,435.2c-0.3-0.1-1.7,2.6-2.9,5.7c-0.2,0.4-0.3,0.8-0.4,1.2C31.8,439.1,32.7,435.4,32.4,435.2z"
			/>
		<path class="st1" d="M35.3,446.6c1.9-0.1,3.3-2.1,4.2-3.8c0.1-0.2,0.3-0.2,0.4,0c0.1,0.2,0.1,0.8-0.2,1.5c-0.8,1.5-2.4,2.7-4.2,3
			c-2.9,0.4-4.2-2.3-3.1-5.5c1.1-3.1,3.3-4.6,4.5-4c0.6,0.3,1.1,0.6,1.5,1c0.5,0.5,0.5,1.9-0.4,3.2c-1,1.5-2.4,2.3-4.2,1.1
			C33.4,445.3,34.1,446.7,35.3,446.6z M36.6,441.1c0.6-1,1-2.3,0.6-2.5c-0.5-0.3-2.3,1.3-3.1,3.5c-0.1,0.1-0.1,0.3-0.1,0.4
			C35.2,443.2,36,442.1,36.6,441.1z"/>
		<path class="st1" d="M46.4,432.9c-0.1-0.2-0.1-0.4,0.2-0.4c1.6-0.3,3.5-1.7,5-1.9c1.2-0.2,2.3,0,2.9,1.5c0.6,1.5,0.3,2.8-0.4,3.9
			c-0.6,0.9-1.6,2.2-3.2,3.1c0.5,0.2,0.9,0.4,1.2,0.8c0.6,0.7,0.7,2-0.2,3.2c-0.9,1.2-2.5,2.2-3.7,2.6c-0.8,0.3-1.4,0.3-1.9,0.1
			c-0.5-0.2-0.9-0.5-1.3-0.9c-0.4-0.5-0.7-0.8-0.3-2.3c0.6-2.7,2-6.2,3.4-8.9C47.1,433.7,46.6,433.3,46.4,432.9z M48.5,440.1
			c-0.6,0.1-1.1,0.1-1.4,0c-0.5,1.3-0.9,2.5-1.1,3.7c-0.2,0.8,0.1,1.1,0.8,0.9c1.4-0.3,3.3-1.5,4.1-2.8c0.7-1.1,0.6-2.2-1.5-2
			C49.1,439.9,48.8,440,48.5,440.1z M53.6,432.4c-0.6-1.1-2.7,0.2-4.2,0.9c0.1,0.5,0,1.2-0.4,2.3c-0.4,0.9-0.9,2-1.4,3.3
			C51.9,437.3,54.4,433.9,53.6,432.4z"/>
		<path class="st1" d="M53.8,441.7c0.4-1.7,1.6-4.6,2.3-5.9c0.2-0.3,0.3-0.4,0.5-0.2c0.4,0.3,0.7,1.3,0.3,2.5
			c-0.4,1.1-1.1,2.7-1.5,3.9c-0.4,1.4-0.2,2.3,0.5,2.1c1-0.2,2.1-1.8,2.6-3.5c0.1-0.2,0.3-0.2,0.4,0c0.2,0.3,0.2,0.8,0,1.4
			c-0.5,1.5-1.8,2.6-3.1,2.8C54,445.1,53.4,443.7,53.8,441.7z M58.2,435.2c-0.3,0.4-0.9,0.4-1.3-0.2c-0.4-0.6-0.4-1.3-0.1-1.7
			c0.3-0.4,1-0.2,1.4,0.3C58.6,434.2,58.5,434.9,58.2,435.2z"/>
		<path class="st1" d="M63.8,444.5c-0.9,3.2-2.1,7-3.9,7.9c-0.4,0.2-0.9,0.2-1.4-0.3c-0.6-0.6-1.1-1.4-0.8-2.8
			c0.4-2.1,2.2-3.7,4.4-4.9c0.2-0.5,0.3-1.1,0.5-1.6c-0.6,0.7-1.3,1.3-2.2,1.4c-2.1,0.2-2.8-2.6-1.3-5.5c1.5-2.8,3.2-4.1,4.4-4.2
			c0.9-0.1,1.4,0.5,1.5,1.3c0.2-0.5,0.4-0.9,0.6-1.3c0.1-0.3,0.4-0.4,0.6-0.2c0.4,0.4,0.7,1.3,0.2,2.5c-0.5,1.4-1.6,4.4-2.3,6.7
			c1.8-1.2,2.9-2.6,3.7-3.9c0.1-0.2,0.3-0.2,0.4,0c0.1,0.2,0,0.7-0.3,1.4C67.2,442.6,65.6,443.6,63.8,444.5z M59,451.3
			c0.3,0.4,1.9-2.2,2.9-5.8C59.2,447.6,58.5,450.8,59,451.3z M64,435.7c-0.7,0-2.2,1.7-3.2,3.8c-1,2.1-1,4.1-0.1,4
			c0.9-0.1,1.9-1.6,2.8-3.8C64.7,437.1,64.7,435.7,64,435.7z"/>
		<path class="st1" d="M81.6,436.9c0.7,1.5-0.5,3.3-1.4,4.1c-1.5,1.3-3.4,1.5-4.7,1c-1.1-0.4-2.1-1.7-2.4-3.6
			c-0.6-4.8,2.9-9.4,5.4-10.7c1.2-0.6,2.3-0.8,3.1-0.3c0.5,0.4,1.1,1,1.4,1.5c0.3,0.6,0.3,1.3,0,2s-0.5,1.7-0.7,2.4
			c0,0.2-0.2,0.3-0.5,0.2c-0.6-0.3-1-0.9-0.8-2.1c0.2-1.2,0.9-2.6,0.3-3.1c-0.7-0.6-4,1.6-5.6,5.3c-1.6,3.5-1,6.9,0.2,7.7
			c1.6,1,3.8-0.8,5.2-4.4C81.2,436.6,81.4,436.6,81.6,436.9z"/>
		<path class="st1" d="M88.5,432.4c0.3-0.2,0.4-0.3,0.6-0.1c0.5,0.4,1.1,1.4,0.6,2.2c-0.9,1.3-1.8,2.8-2.1,4.1
			c-0.2,1.2,0.1,2.1,0.8,2c0.9-0.1,1.8-1.6,2.4-3.3c0.1-0.2,0.2-0.2,0.3-0.1c0.1,0.2,0.2,0.8,0,1.4c-0.4,1.4-1.6,2.5-2.8,2.6
			c-1.6,0.1-2.5-1.3-2.1-3.1c0.3-1.6,1.5-3.3,2.2-4.5c-0.9,0.8-1.9,1.1-2.6,1.2c-0.7,1.7-2.5,5.2-2.7,7.3c0,0.2-0.1,0.3-0.4,0.2
			c-0.7-0.6-0.9-1.7-0.4-2.9c0.4-1.1,1.7-3.4,2.4-4.7c-1.4-0.7,0.3-3.6,1.1-3.7c0.7-0.1,0.7,1.2,0.3,2.7
			C87,433.6,87.7,433.1,88.5,432.4z"/>
		<path class="st1" d="M93.9,439.8c1.9-0.1,3.3-2.1,4.2-3.8c0.1-0.2,0.3-0.2,0.4,0c0.1,0.2,0.1,0.8-0.2,1.5c-0.8,1.5-2.4,2.7-4.2,3
			c-2.9,0.4-4.2-2.3-3.1-5.5c1.1-3.1,3.3-4.6,4.5-4c0.6,0.3,1.1,0.6,1.5,1c0.5,0.5,0.5,1.9-0.4,3.2c-1,1.5-2.4,2.3-4.2,1.1
			C92,438.5,92.7,439.9,93.9,439.8z M95.2,434.4c0.6-1,1-2.3,0.6-2.5c-0.5-0.3-2.3,1.3-3.1,3.5c-0.1,0.1-0.1,0.3-0.1,0.4
			C93.8,436.4,94.6,435.3,95.2,434.4z"/>
		<path class="st1" d="M108.4,429.3c0.3-0.1,0.5,0.2,0.4,0.7c-0.1,0.9-0.3,2-1.5,4.5c-1.2,2.8-2.7,4.7-4.2,4.8
			c-1,0.1-1.6-0.7-1.7-1.7c-0.6,1-1.5,2-2.6,2.1c-1.4,0.1-1.8-1.4-1.4-3.1c0.3-1.6,1.2-3.9,2.5-6.2c0.2-0.3,0.4-0.3,0.5-0.1
			c0.6,0.7,0.6,1.7-0.1,3.1c-0.7,1.4-1.1,2.5-1.5,3.7c-0.3,1.2-0.2,2,0.3,1.9c0.9-0.1,1.6-1.7,2.6-3.9c1.2-2.5,1.7-4.1,2.3-5.2
			c0.2-0.3,0.3-0.4,0.6-0.2c0.4,0.4,0.7,1.4,0.2,2.6c-0.4,1.1-1.3,2.9-1.7,4.2c-0.5,1.4-0.3,2.1,0.4,2.1c0.8-0.1,2-1.7,3-4
			C106.6,431.1,108,429.5,108.4,429.3z"/>
		<path class="st1" d="M109.8,438.6c-0.2,0.4-0.9,0.3-1.3-0.2c-0.4-0.5-0.4-1.2-0.1-1.7c0.3-0.4,1-0.2,1.4,0.4
			C110.1,437.6,110,438.2,109.8,438.6z M114,423.7c0.4,0.6,0.5,1.7-0.3,3.5c-1,2.4-2.5,6.2-3.4,8.8c-0.1,0.2-0.2,0.3-0.4,0.1
			c-0.4-0.3-0.7-1-0.4-2.5c0.6-2.5,2.4-7.3,3.8-10C113.6,423.4,113.9,423.4,114,423.7z"/>
	</g>
	
		<rect id="XMLID_5_" x="-106.3" y="344.7" transform="matrix(-0.9934 0.1145 -0.1145 -0.9934 115.8416 751.3629)" class="st2" width="285.3" height="68.6"/>
	<g class="st0">
		<path class="st1" d="M-49.6,350l6.3-0.7l7.5,10.1l5-11.5l6.3-0.7l3.2,28.2l-7.6,0.9l-1.2-10.1l-3.9,9l-5.9-7.9l1.2,10.1l-7.6,0.9
			L-49.6,350z"/>
		<path class="st1" d="M-14.9,346l5.7-0.7l12.3,27.1l-7.5,0.9l-1.1-2.4l-7.2,0.8l-0.5,2.6l-7.5,0.9L-14.9,346z M-8.2,365l-2.2-4.8
			l-1,5.1L-8.2,365z"/>
		<path class="st1" d="M0.4,344.3l7.7-0.9l0.8,6.5l3.8-7l9.3-1.1l-6.9,13.9l10.6,14.3l-9.2,1.1l-6.1-8.1l1,8.7l-7.7,0.9L0.4,344.3z"
			/>
		<path class="st1" d="M23.1,341.6l8.1-0.9l3.2,28.2l-8.1,0.9L23.1,341.6z"/>
		<path class="st1" d="M33.7,340.4l6.3-0.7l7.8,10.1l-1.3-10.9l7.5-0.9l3.2,28.2L51,367l-7.8-10.1l1.2,10.8l-7.5,0.9L33.7,340.4z"/>
		<path class="st1" d="M72.9,345.6c-0.5-0.4-1.1-0.7-1.7-0.9c-0.7-0.2-1.3-0.2-1.9-0.1c-0.7,0.1-1.3,0.3-1.8,0.7
			c-0.5,0.4-1,0.8-1.3,1.4c-0.4,0.6-0.6,1.2-0.8,2c-0.2,0.8-0.2,1.6-0.1,2.4c0.1,0.8,0.3,1.6,0.7,2.3c0.3,0.7,0.8,1.3,1.3,1.8
			s1.1,0.8,1.7,1c0.6,0.2,1.3,0.3,2,0.2c0.8-0.1,1.5-0.4,2.1-0.9c0.6-0.5,1.1-1.1,1.5-1.9l-2.1,0.2l-0.7-5.9L81,347l1.1,9.4
			c-0.4,1.2-1,2.3-1.6,3.4c-0.7,1-1.4,1.9-2.3,2.7c-0.9,0.8-1.8,1.4-2.9,1.9c-1.1,0.5-2.2,0.8-3.3,0.9c-1.7,0.2-3.4,0-5-0.6
			c-1.6-0.6-3.1-1.5-4.4-2.7c-1.3-1.2-2.4-2.7-3.2-4.4c-0.9-1.7-1.4-3.6-1.7-5.7c-0.2-2-0.1-4,0.3-5.9c0.4-1.9,1.1-3.5,2-5
			c0.9-1.5,2.1-2.7,3.5-3.6c1.4-0.9,3-1.5,4.7-1.7c1.3-0.2,2.5-0.1,3.5,0.1c1,0.2,1.9,0.5,2.6,0.8c0.8,0.4,1.6,0.8,2.1,1.3
			L72.9,345.6z"/>
		<path class="st1" d="M88.7,334.1l8.1-0.9l3.2,28.2l-8.1,0.9L88.7,334.1z"/>
		<path class="st1" d="M103.3,339.9l-4.4,0.5l-0.9-7.4l16.7-1.9l0.9,7.4l-4.4,0.5l2.4,20.8l-7.9,0.9L103.3,339.9z"/>
	</g>
	<g class="st0">
		<path class="st1" d="M-56,401.9l-4.4,0.5l-0.9-7.4l16.7-1.9l0.9,7.4l-4.4,0.5l2.4,20.8l-7.9,0.9L-56,401.9z"/>
		<path class="st1" d="M-36.2,392.1l5.7-0.7l12.3,27.1l-7.5,0.9l-1.1-2.4l-7.2,0.8l-0.5,2.6l-7.5,0.9L-36.2,392.1z M-29.5,411
			l-2.2-4.8l-1,5.1L-29.5,411z"/>
		<path class="st1" d="M-19.3,409.8c0.5,0.1,1.1,0.2,1.7,0.3c0.5,0.1,1.1,0.1,1.7,0.1c0.6,0,1.2,0,1.9-0.1c1.1-0.1,1.6-0.7,1.5-1.6
			c0-0.4-0.3-0.7-0.6-1.1c-0.4-0.3-0.9-0.7-1.4-1.1c-0.6-0.4-1.2-0.9-1.8-1.4c-0.7-0.5-1.3-1.1-1.9-1.8c-0.6-0.7-1.1-1.4-1.6-2.3
			c-0.4-0.9-0.7-1.9-0.9-3.1c-0.2-1.3-0.1-2.5,0.2-3.6c0.3-1.1,0.8-2,1.4-2.7c0.6-0.8,1.4-1.4,2.3-1.8c0.9-0.5,1.9-0.8,3-0.9
			c0.6-0.1,1.2-0.1,1.7-0.1s1.1,0,1.6,0c0.5,0,1.1,0,1.6,0.1l0.9,7.9c-0.2,0-0.4,0-0.7,0c-0.2,0-0.4,0-0.7,0c-0.2,0-0.5,0-0.8,0
			c-0.1,0-0.3,0-0.5,0.1c-0.2,0-0.4,0.1-0.6,0.2c-0.2,0.1-0.3,0.2-0.5,0.4c-0.1,0.2-0.2,0.4-0.1,0.6c0,0.2,0.2,0.5,0.6,0.8
			c0.4,0.3,0.8,0.6,1.3,1c0.5,0.4,1.1,0.9,1.7,1.4c0.6,0.5,1.2,1.1,1.8,1.9c0.6,0.7,1,1.5,1.5,2.4c0.4,0.9,0.7,2,0.9,3.2
			c0.1,1.2,0.1,2.4-0.1,3.5c-0.2,1.1-0.6,2.1-1.2,3c-0.6,0.9-1.4,1.6-2.5,2.2c-1,0.6-2.3,1-3.8,1.1c-0.9,0.1-1.8,0.2-2.5,0.1
			s-1.5,0-2.1-0.1c-0.7-0.1-1.4-0.2-2-0.3L-19.3,409.8z"/>
		<path class="st1" d="M-0.8,395.5l-4.4,0.5l-0.9-7.4l16.7-1.9l0.9,7.4l-4.4,0.5l2.4,20.8l-7.9,0.9L-0.8,395.5z"/>
		<path class="st1" d="M11.9,386.5l14.1-1.6l0.9,7.4l-6.4,0.7l0.4,3.1l6.3-0.7l0.8,7l-6.3,0.7l0.4,3.3l6.7-0.8l0.9,7.4l-14.3,1.7
			L11.9,386.5z"/>
		<path class="st1" d="M51.9,391.6c-0.5-0.4-1.1-0.7-1.7-0.9c-0.7-0.2-1.3-0.2-1.9-0.1c-0.7,0.1-1.3,0.3-1.8,0.7
			c-0.5,0.4-1,0.8-1.3,1.4c-0.4,0.6-0.6,1.2-0.8,2c-0.2,0.8-0.2,1.6-0.1,2.4c0.1,0.8,0.3,1.6,0.7,2.3c0.3,0.7,0.8,1.3,1.3,1.8
			c0.5,0.5,1.1,0.8,1.7,1c0.6,0.2,1.3,0.3,2,0.2c0.8-0.1,1.5-0.4,2.2-0.9c0.6-0.5,1.1-1.1,1.5-1.9l-2.1,0.2l-0.7-5.9l9.2-1.1
			l1.1,9.4c-0.4,1.2-1,2.3-1.6,3.4c-0.7,1-1.4,1.9-2.3,2.7c-0.9,0.8-1.8,1.4-2.9,1.9s-2.2,0.8-3.3,0.9c-1.7,0.2-3.4,0-5-0.6
			c-1.6-0.6-3.1-1.5-4.4-2.7c-1.3-1.2-2.4-2.7-3.2-4.4c-0.9-1.7-1.4-3.6-1.7-5.7c-0.2-2-0.1-4,0.3-5.9c0.4-1.9,1.1-3.5,2-5
			c0.9-1.5,2.1-2.7,3.5-3.6c1.4-0.9,3-1.5,4.7-1.7c1.3-0.2,2.5-0.1,3.5,0.1c1,0.2,1.9,0.5,2.6,0.8c0.8,0.4,1.6,0.8,2.1,1.3
			L51.9,391.6z"/>
		<path class="st1" d="M61.6,395.1c-0.2-2-0.1-4,0.3-5.9c0.4-1.9,1.2-3.6,2.1-5c1-1.5,2.2-2.7,3.6-3.6c1.4-1,3-1.5,4.7-1.7
			s3.4,0,5,0.6c1.6,0.6,3.1,1.5,4.4,2.7c1.3,1.2,2.4,2.7,3.2,4.4c0.9,1.7,1.4,3.6,1.6,5.6c0.2,2,0.1,4-0.3,5.9
			c-0.4,1.9-1.2,3.6-2.1,5c-1,1.5-2.2,2.7-3.6,3.6c-1.4,1-3,1.5-4.7,1.7s-3.4,0-5-0.6c-1.6-0.6-3.1-1.5-4.4-2.7
			c-1.3-1.2-2.4-2.7-3.2-4.4C62.4,399,61.8,397.1,61.6,395.1z M69.1,394.2c0.1,0.8,0.3,1.6,0.7,2.3c0.3,0.7,0.8,1.3,1.3,1.8
			c0.5,0.5,1.1,0.8,1.7,1.1c0.6,0.2,1.3,0.3,2,0.2c0.7-0.1,1.3-0.3,1.9-0.7c0.6-0.4,1.1-0.9,1.4-1.5c0.4-0.6,0.7-1.3,0.9-2
			c0.2-0.7,0.2-1.5,0.1-2.3c-0.1-0.8-0.3-1.6-0.7-2.3c-0.3-0.7-0.8-1.3-1.3-1.8c-0.5-0.5-1.1-0.8-1.7-1.1c-0.6-0.2-1.3-0.3-2-0.2
			c-0.7,0.1-1.3,0.3-1.9,0.7c-0.6,0.4-1.1,0.9-1.4,1.5c-0.4,0.6-0.7,1.3-0.9,2C69.1,392.6,69,393.4,69.1,394.2z"/>
		<path class="st1" d="M88.1,392.1c-0.2-2-0.1-4,0.3-5.9c0.4-1.9,1.2-3.6,2.1-5c1-1.5,2.2-2.7,3.6-3.6c1.4-1,3-1.5,4.7-1.7
			s3.4,0,5,0.6c1.6,0.6,3.1,1.5,4.4,2.7c1.3,1.2,2.4,2.7,3.2,4.4c0.9,1.7,1.4,3.6,1.6,5.6c0.2,2,0.1,4-0.3,5.9
			c-0.4,1.9-1.2,3.6-2.1,5c-1,1.5-2.2,2.7-3.6,3.6c-1.4,1-3,1.5-4.7,1.7s-3.4,0-5-0.6c-1.6-0.6-3.1-1.5-4.4-2.7
			c-1.3-1.2-2.4-2.7-3.2-4.4C88.9,396,88.3,394.1,88.1,392.1z M95.6,391.2c0.1,0.8,0.3,1.6,0.7,2.3c0.3,0.7,0.8,1.3,1.3,1.8
			c0.5,0.5,1.1,0.8,1.7,1.1c0.6,0.2,1.3,0.3,2,0.2c0.7-0.1,1.3-0.3,1.9-0.7c0.6-0.4,1.1-0.9,1.4-1.5s0.7-1.3,0.9-2
			c0.2-0.7,0.2-1.5,0.1-2.3c-0.1-0.8-0.3-1.6-0.7-2.3c-0.3-0.7-0.8-1.3-1.3-1.8c-0.5-0.5-1.1-0.8-1.7-1.1c-0.6-0.2-1.3-0.3-2-0.2
			c-0.7,0.1-1.3,0.3-1.9,0.7c-0.6,0.4-1.1,0.9-1.4,1.5c-0.4,0.6-0.7,1.3-0.9,2C95.6,389.6,95.5,390.4,95.6,391.2z"/>
		<path class="st1" d="M116.8,403l-3.2-28.2l6.6-0.8c2.2-0.3,4.3-0.2,6.1,0.2c1.8,0.4,3.4,1.1,4.7,2.2c1.3,1,2.4,2.4,3.3,4.1
			c0.8,1.7,1.4,3.7,1.7,6c0.3,2.3,0.2,4.4-0.2,6.2c-0.4,1.8-1.2,3.4-2.2,4.7c-1.1,1.3-2.4,2.4-4.1,3.2c-1.7,0.8-3.7,1.3-5.9,1.6
			L116.8,403z M123.5,394.1c1.8-0.2,3.1-0.9,4-2c0.9-1.1,1.2-2.7,0.9-4.8c-0.2-2.1-0.9-3.5-2-4.4c-1.1-0.9-2.5-1.2-4.3-1
			L123.5,394.1z"/>
	</g>
	<g class="st0">
		<path class="st1" d="M-122.6,387c0.3,0.1,0.6,0.1,0.9,0.1c0.3,0,0.5,0.1,0.9,0.1c0.3,0,0.7,0,1-0.1c0.6-0.1,0.8-0.3,0.8-0.7
			c0-0.2-0.1-0.3-0.3-0.5s-0.4-0.3-0.7-0.5c-0.3-0.2-0.6-0.4-0.9-0.6c-0.3-0.2-0.7-0.5-1-0.8c-0.3-0.3-0.6-0.6-0.8-1
			c-0.2-0.4-0.4-0.8-0.4-1.4c-0.1-0.6,0-1.1,0.1-1.6c0.2-0.5,0.4-0.9,0.8-1.2c0.3-0.3,0.8-0.6,1.2-0.8s1-0.4,1.6-0.4
			c0.3,0,0.6-0.1,0.9-0.1s0.6,0,0.8,0c0.3,0,0.6,0,0.8,0l0.4,3.5c-0.1,0-0.2,0-0.3,0c-0.1,0-0.2,0-0.3,0s-0.3,0-0.4,0
			c-0.1,0-0.2,0-0.3,0c-0.1,0-0.2,0-0.3,0.1c-0.1,0-0.2,0.1-0.2,0.2c-0.1,0.1-0.1,0.2-0.1,0.3c0,0.1,0.1,0.2,0.3,0.3
			c0.2,0.1,0.4,0.3,0.7,0.5c0.3,0.2,0.6,0.4,0.9,0.6c0.3,0.2,0.6,0.5,0.9,0.8c0.3,0.3,0.5,0.7,0.8,1.1c0.2,0.4,0.4,0.9,0.4,1.4
			c0.1,0.6,0,1.1-0.1,1.6c-0.1,0.5-0.3,1-0.7,1.4c-0.3,0.4-0.8,0.7-1.3,1c-0.6,0.3-1.2,0.5-2,0.5c-0.5,0.1-0.9,0.1-1.3,0.1
			c-0.4,0-0.8,0-1.1,0c-0.4,0-0.7-0.1-1-0.1L-122.6,387z"/>
		<path class="st1" d="M-114.8,377.3l4.3-0.5l1.4,12.6l-4.3,0.5L-114.8,377.3z"/>
		<path class="st1" d="M-109.2,376.7l3.3-0.4l4,4.4l-0.6-4.8l3.9-0.5l1.4,12.6l-3.3,0.4l-4-4.4l0.6,4.8l-3.9,0.5L-109.2,376.7z"/>
		<path class="st1" d="M-96.7,381.6c-0.1-1,0-1.9,0.2-2.8c0.3-0.9,0.7-1.6,1.2-2.2c0.5-0.6,1.2-1.2,2-1.6c0.8-0.4,1.6-0.7,2.5-0.8
			c0.7-0.1,1.4-0.1,1.9,0c0.6,0.1,1.1,0.2,1.5,0.3c0.5,0.1,0.9,0.3,1.3,0.5l-1.6,3.7c-0.2-0.1-0.5-0.2-0.7-0.4
			c-0.2-0.1-0.5-0.1-0.8-0.2c-0.3-0.1-0.6-0.1-1,0c-0.4,0-0.7,0.2-1.1,0.3c-0.3,0.2-0.6,0.4-0.8,0.7c-0.2,0.3-0.4,0.6-0.5,0.9
			c-0.1,0.3-0.1,0.7-0.1,1.1c0,0.4,0.2,0.7,0.3,1c0.2,0.3,0.4,0.6,0.7,0.8c0.3,0.2,0.6,0.4,1,0.5c0.4,0.1,0.7,0.1,1.1,0.1
			c0.4,0,0.8-0.1,1.1-0.3c0.3-0.1,0.6-0.3,0.8-0.4c0.2-0.2,0.4-0.4,0.6-0.6l2.4,3.3c-0.3,0.3-0.7,0.6-1.1,0.9
			c-0.4,0.2-0.8,0.4-1.4,0.7c-0.5,0.2-1.2,0.4-1.9,0.4c-1,0.1-1.9,0.1-2.8-0.2c-0.9-0.2-1.6-0.6-2.3-1.1c-0.7-0.5-1.2-1.1-1.7-1.9
			C-96.4,383.5-96.6,382.6-96.7,381.6z"/>
		<path class="st1" d="M-85.6,373.9l7.4-0.9l0.4,3.3l-3.4,0.4l0.2,1.4l3.3-0.4l0.4,3.1l-3.3,0.4l0.2,1.5l3.5-0.4l0.4,3.3l-7.5,0.9
			L-85.6,373.9z"/>
	</g>
	<g class="st0">
		<path class="st1" d="M146.6,353.8c0.2-0.5,0.3-0.9,0.4-1.2c0-0.3,0.1-0.5,0-0.7c0-0.4-0.2-0.7-0.5-0.9c-0.3-0.2-0.7-0.3-1.2-0.2
			c-0.1,0-0.2,0-0.3,0c-0.1,0-0.2,0-0.2,0.1c-0.1,0-0.2,0-0.2,0l-0.4-3.5c0.2-0.1,0.3-0.1,0.5-0.1c0.1,0,0.3-0.1,0.4-0.1
			c0.1,0,0.3-0.1,0.4-0.1c0.1,0,0.3,0,0.5-0.1c0.6-0.1,1.2-0.1,1.8,0c0.6,0.1,1.1,0.2,1.7,0.5c0.5,0.2,0.9,0.6,1.3,1.1
			c0.3,0.5,0.6,1.1,0.6,1.8c0,0.3,0,0.7,0,1s-0.1,0.7-0.2,1.1c-0.1,0.4-0.3,0.9-0.5,1.4s-0.4,1.1-0.7,1.8l-0.2,0.5l2.4-0.3l-0.7,3.4
			l-7.3,0.8L146.6,353.8z"/>
		<path class="st1" d="M162.2,351.7c0.2,2.1,0,3.8-0.8,5.1c-0.8,1.2-1.9,1.9-3.5,2.1c-1.6,0.2-2.9-0.2-3.9-1.3c-1-1-1.7-2.6-1.9-4.7
			s0-3.8,0.8-5.1c0.8-1.2,1.9-1.9,3.5-2.1c1.6-0.2,2.9,0.2,3.9,1.3C161.3,348,162,349.6,162.2,351.7z M158.3,352.2
			c-0.2-2-0.7-2.9-1.5-2.8c-0.8,0.1-1.1,1.1-0.9,3.1c0.2,2,0.7,2.9,1.5,2.8C158.3,355.2,158.6,354.2,158.3,352.2z"/>
		<path class="st1" d="M163.5,350.2l-1.9-1.8l2.4-3.2l3-0.3l1.4,12.6l-4.1,0.5L163.5,350.2z"/>
		<path class="st1" d="M168.9,353.9c0.9-0.1,1.6-0.4,2.1-0.8c0.5-0.4,0.6-0.9,0.6-1.4c0-0.4-0.2-0.7-0.4-0.9
			c-0.2-0.2-0.5-0.4-0.8-0.5c-0.3-0.1-0.7-0.1-1-0.1c-0.4,0-0.7,0-1.1,0.1l1.6-5.8l5.1-0.6l0.4,3.5l-2.4,0.3
			c0.4,0.2,0.8,0.5,1.2,0.9c0.3,0.3,0.6,0.7,0.9,1.2c0.3,0.5,0.5,1,0.5,1.7c0.1,0.9,0,1.7-0.3,2.5c-0.3,0.7-0.7,1.3-1.3,1.8
			c-0.6,0.5-1.2,0.9-2,1.2c-0.8,0.3-1.5,0.5-2.3,0.6c-0.2,0-0.3,0-0.3,0c-0.1,0-0.1,0-0.1,0L168.9,353.9z"/>
	</g>
</g>
</svg>
