<?xml version="1.0" encoding="utf-8"?>
<!-- Generator: Adobe Illustrator 19.1.0, SVG Export Plug-In . SVG Version: 6.00 Build 0)  -->
<svg version="1.1" id="Layer_1" xmlns="http://www.w3.org/2000/svg" xmlns:xlink="http://www.w3.org/1999/xlink" x="0px" y="0px"
	 viewBox="0 0 300.8 122.5" style="enable-background:new 0 0 300.8 122.5;" xml:space="preserve">
<style type="text/css">
	.st0{fill:#FFFFFF;}
</style>
<g>
	<g>
		<path class="st0" d="M94.9,117.4c-0.1-0.2-0.1-0.3,0.2-0.3c1.2-0.1,2.9-0.5,3.9-0.6c1.1-0.1,1.6,0.3,1.8,1c0.1,0.2,0,0.3-0.2,0.3
			c-1.7,0.1-2.9,0.6-4,0.7C95.6,118.4,95.1,118,94.9,117.4z"/>
		<path class="st0" d="M102.2,112.8c-0.3-0.3-0.1-0.5,0.2-0.5c0.6-0.1,1.3-0.2,1.9-0.3c0.6-1.3,1.1-2.5,1.4-3
			c0.2-0.3,0.4-0.3,0.5-0.1c0.3,0.6,0.4,1.4,0,2.6c0.9-0.1,1.3,0.2,1.5,0.5c0.2,0.3,0.1,0.4-0.2,0.5c-0.5,0-1.2,0.1-1.8,0.3
			c-0.7,1.6-1.8,4-2.4,6c-0.6,1.7-0.1,3.1,0.8,3.1c1-0.1,2.1-1.8,2.8-3.6c0.1-0.3,0.3-0.4,0.5-0.1c0.2,0.3,0.1,0.8-0.1,1.3
			c-0.2,0.7-1.5,2.9-3.3,3c-1.5,0.1-2.9-1.4-2.1-4.2c0.3-1.2,1.1-3.2,1.9-5.1C102.9,113.3,102.4,113,102.2,112.8z"/>
		<path class="st0" d="M112.5,121.5c-1.9,0.2-2.5-1.1-2.1-3.2c0.5-2.3,2.2-4.9,1.8-5c-0.3-0.1-2.6,1.7-3.7,4
			c-0.7,1.4-1.3,3.1-1.7,4.6c-0.1,0.2-0.2,0.3-0.4,0.1c-0.4-0.4-0.7-1-0.4-2.4c0.5-2.4,4.3-10.9,5.9-13.4c0.2-0.3,0.4-0.3,0.5,0
			c0.4,0.6,0.4,1.8-0.3,3.3c-0.4,1-1.4,3-2.2,4.6c0.8-1,1.9-1.9,2.5-1.9c0.8,0,1.6,1.1,1.2,2.3c-0.4,1.1-1.3,2.8-1.7,4.1
			c-0.4,1.4-0.2,2.4,0.7,2.3c0.9-0.2,2-1.9,2.5-3.5c0.1-0.2,0.3-0.2,0.4-0.1c0.1,0.2,0.2,0.7-0.1,1.4
			C115.1,120,113.8,121.3,112.5,121.5z"/>
		<path class="st0" d="M118.4,120.1c1.9-0.1,3.3-2.1,4.2-3.8c0.1-0.2,0.3-0.2,0.4,0c0.1,0.2,0.1,0.8-0.2,1.5c-0.8,1.5-2.4,2.7-4.2,3
			c-2.9,0.4-4.2-2.3-3.1-5.5c1.1-3.1,3.3-4.6,4.5-4c0.6,0.3,1.1,0.6,1.5,1c0.5,0.5,0.5,1.9-0.4,3.2c-1,1.5-2.4,2.3-4.2,1.1
			C116.5,118.8,117.2,120.2,118.4,120.1z M119.7,114.7c0.6-1,1-2.3,0.6-2.5c-0.5-0.3-2.3,1.3-3.1,3.5c-0.1,0.1-0.1,0.3-0.1,0.4
			C118.3,116.7,119.1,115.6,119.7,114.7z"/>
		<path class="st0" d="M132.1,116.9c1.1-0.2,1.8,0.1,2.1,0.8c0.1,0.2,0.1,0.3-0.2,0.4c-1.1,0.1-3.6,1-4.9,1.5
			c-0.5,0.2-0.8,0.2-1.1-0.1c-0.2-0.3-0.6-0.6-0.7-0.9c-0.2-0.4-0.2-0.7-0.1-1.3c0.8-2.9,3.7-10.3,4.9-12.4c0.2-0.3,0.4-0.3,0.6,0
			c0.3,0.5,0.5,1.5-0.2,3.3c-0.9,2.3-2.6,6-3.9,9.9C130,117.5,131.2,117.1,132.1,116.9z"/>
		<path class="st0" d="M135.3,115.5c0.4-1.7,1.6-4.6,2.3-5.9c0.2-0.3,0.3-0.4,0.5-0.2c0.4,0.3,0.7,1.3,0.3,2.5
			c-0.4,1.1-1.1,2.7-1.5,3.9c-0.4,1.4-0.2,2.3,0.5,2.1c1-0.2,2.1-1.8,2.6-3.5c0.1-0.2,0.3-0.2,0.4,0c0.2,0.3,0.2,0.8,0,1.4
			c-0.5,1.5-1.8,2.6-3.1,2.8C135.5,118.8,134.9,117.4,135.3,115.5z M139.7,109c-0.3,0.4-0.9,0.4-1.3-0.2c-0.4-0.6-0.4-1.3-0.1-1.7
			c0.3-0.4,1-0.2,1.4,0.3C140.1,108,140,108.6,139.7,109z"/>
		<path class="st0" d="M140.6,108.3c-0.3-0.3-0.1-0.4,0.2-0.5c0.5-0.1,1.2-0.1,1.8-0.2c0.5-1.3,1.1-2.4,1.4-2.9
			c0.2-0.3,0.4-0.3,0.5-0.1c0.3,0.6,0.4,1.4,0,2.7c1.2-0.2,2.4-0.4,3.3-0.6c0.5-1.3,1-2.3,1.3-2.9c0.2-0.3,0.4-0.3,0.5,0
			c0.3,0.6,0.4,1.4,0,2.6c0.9,0,1.3,0.3,1.5,0.6c0.2,0.3,0.1,0.4-0.2,0.4c-0.4,0-1,0.1-1.7,0.2c-0.7,1.7-1.8,4.1-2.5,6.1
			c-0.6,1.8-0.1,3.1,0.8,3.1c1-0.1,2.1-1.8,2.8-3.6c0.1-0.3,0.3-0.4,0.5-0.1c0.2,0.4,0.1,0.8-0.1,1.3c-0.2,0.7-1.5,2.9-3.3,3
			c-0.9,0.1-1.8-0.5-2.2-1.6c-0.5,0.9-1.5,2.1-2.9,2.2c-1.5,0.1-2.9-1.4-2.1-4.2c0.3-1.2,1.1-3.2,1.9-5.1
			C141.4,108.8,140.9,108.5,140.6,108.3z M144.1,108.5c-0.7,1.6-1.7,3.8-2.3,5.8c-0.6,1.7-0.1,3.1,0.8,3.1c1-0.1,2.1-2,2.7-3.7
			c0.4-1.3,1.2-3.6,2.1-5.7C146.2,108.2,145,108.4,144.1,108.5z"/>
		<path class="st0" d="M152.3,116.2c1.1,0,2.5-1.9,3.2-3.7c0.1-0.3,0.4-0.4,0.5-0.1c0.2,0.4,0.1,0.9-0.1,1.4c-0.2,0.7-1.7,2.8-3.5,3
			c-1.6,0.1-2.5-0.9-2.3-3.4c0.4-4.1,2.5-8.5,4.5-11.1c0.3-0.4,0.6-0.5,1-0.2c0.7,0.5,1,1.3,0.8,2.4c-0.4,2.9-2.6,5.9-4.5,7.5
			C151.3,114.3,151.3,116.2,152.3,116.2z M155.7,104.1c-0.3-0.1-1.7,2.6-2.9,5.7c-0.2,0.4-0.3,0.8-0.4,1.2
			C155.1,108.1,156,104.3,155.7,104.1z"/>
		<path class="st0" d="M158.6,115.5c1.9-0.1,3.3-2.1,4.2-3.8c0.1-0.2,0.3-0.2,0.4,0c0.1,0.2,0.1,0.8-0.2,1.5c-0.8,1.5-2.4,2.7-4.2,3
			c-2.9,0.4-4.2-2.3-3.1-5.5c1.1-3.1,3.3-4.6,4.5-4c0.6,0.3,1.1,0.6,1.5,1c0.5,0.5,0.5,1.9-0.4,3.2c-1,1.5-2.4,2.3-4.2,1.1
			C156.7,114.2,157.4,115.6,158.6,115.5z M159.9,110.1c0.6-1,1-2.3,0.6-2.5c-0.5-0.3-2.3,1.3-3.1,3.5c-0.1,0.1-0.1,0.3-0.1,0.4
			C158.5,112.1,159.3,111,159.9,110.1z"/>
		<path class="st0" d="M169.7,101.8c-0.1-0.2-0.1-0.4,0.2-0.4c1.6-0.3,3.5-1.7,5-1.9c1.2-0.2,2.3,0,2.9,1.5c0.6,1.5,0.3,2.8-0.4,3.9
			c-0.6,0.9-1.6,2.2-3.2,3.1c0.5,0.2,0.9,0.4,1.2,0.8c0.6,0.6,0.7,2-0.2,3.2c-0.9,1.2-2.5,2.2-3.7,2.6c-0.8,0.3-1.4,0.3-1.9,0.1
			c-0.5-0.2-0.9-0.5-1.3-0.9c-0.4-0.5-0.7-0.8-0.3-2.3c0.6-2.7,2-6.2,3.4-8.9C170.4,102.6,169.9,102.2,169.7,101.8z M171.8,109
			c-0.6,0.1-1.1,0.1-1.4,0c-0.5,1.3-0.9,2.5-1.1,3.7c-0.2,0.8,0.1,1.1,0.8,0.9c1.4-0.3,3.3-1.5,4.1-2.8c0.7-1.1,0.6-2.2-1.5-2
			C172.4,108.8,172.1,108.9,171.8,109z M176.9,101.3c-0.6-1.1-2.7,0.2-4.2,0.9c0.1,0.5,0,1.2-0.4,2.3c-0.4,0.9-0.9,2-1.4,3.3
			C175.2,106.2,177.7,102.8,176.9,101.3z"/>
		<path class="st0" d="M177.1,110.7c0.4-1.7,1.6-4.6,2.3-5.9c0.2-0.3,0.3-0.4,0.5-0.2c0.4,0.3,0.7,1.3,0.3,2.5
			c-0.4,1.1-1.1,2.7-1.5,3.9c-0.4,1.4-0.2,2.3,0.5,2.1c1-0.2,2.1-1.8,2.6-3.5c0.1-0.2,0.3-0.2,0.4,0c0.2,0.3,0.2,0.8,0,1.4
			c-0.5,1.5-1.8,2.6-3.1,2.8C177.3,114,176.7,112.6,177.1,110.7z M181.5,104.1c-0.3,0.4-0.9,0.4-1.3-0.2c-0.4-0.6-0.4-1.3-0.1-1.7
			c0.3-0.4,1-0.2,1.4,0.3C181.9,103.1,181.8,103.8,181.5,104.1z"/>
		<path class="st0" d="M187.1,113.5c-0.9,3.2-2.1,7-3.9,7.9c-0.4,0.2-0.9,0.2-1.4-0.3c-0.6-0.6-1.1-1.4-0.8-2.8
			c0.4-2.1,2.2-3.7,4.4-4.9c0.2-0.5,0.3-1.1,0.5-1.6c-0.6,0.7-1.3,1.3-2.2,1.4c-2.1,0.2-2.8-2.6-1.3-5.5c1.5-2.8,3.2-4.1,4.4-4.2
			c0.9-0.1,1.4,0.5,1.5,1.3c0.2-0.5,0.4-0.9,0.6-1.3c0.1-0.3,0.4-0.4,0.6-0.2c0.4,0.4,0.7,1.3,0.2,2.5c-0.5,1.4-1.6,4.4-2.3,6.7
			c1.8-1.2,2.9-2.6,3.7-3.9c0.1-0.2,0.3-0.2,0.4,0c0.1,0.2,0,0.7-0.3,1.4C190.5,111.5,188.9,112.6,187.1,113.5z M182.3,120.2
			c0.3,0.4,1.9-2.2,2.9-5.8C182.5,116.5,181.8,119.7,182.3,120.2z M187.3,104.6c-0.7,0-2.2,1.7-3.2,3.8c-1,2.1-1,4.1-0.1,4
			c0.9-0.1,1.9-1.6,2.8-3.8C188,106,188,104.6,187.3,104.6z"/>
		<path class="st0" d="M204.9,105.8c0.7,1.5-0.5,3.3-1.4,4.1c-1.5,1.3-3.4,1.5-4.7,1c-1.1-0.4-2.1-1.7-2.4-3.6
			c-0.6-4.8,2.9-9.4,5.4-10.7c1.2-0.6,2.3-0.8,3.1-0.3c0.5,0.4,1.1,1,1.4,1.5c0.3,0.6,0.3,1.3,0,2s-0.5,1.7-0.6,2.4
			c0,0.2-0.2,0.3-0.5,0.2c-0.6-0.3-1-0.9-0.8-2.1c0.2-1.2,0.9-2.6,0.3-3.1c-0.7-0.6-4,1.6-5.6,5.3c-1.6,3.5-1,6.9,0.2,7.7
			c1.6,1,3.8-0.8,5.2-4.4C204.5,105.5,204.7,105.5,204.9,105.8z"/>
		<path class="st0" d="M211.8,101.3c0.3-0.2,0.4-0.3,0.6-0.1c0.5,0.4,1.1,1.4,0.6,2.2c-0.9,1.3-1.8,2.8-2.1,4.1
			c-0.2,1.2,0.1,2.1,0.8,2c0.9-0.1,1.8-1.6,2.4-3.3c0.1-0.2,0.2-0.2,0.3-0.1c0.1,0.2,0.2,0.8,0,1.4c-0.4,1.4-1.6,2.5-2.8,2.6
			c-1.6,0.1-2.5-1.3-2.1-3.1c0.3-1.6,1.5-3.3,2.2-4.5c-0.9,0.8-1.9,1.1-2.6,1.2c-0.7,1.7-2.5,5.2-2.7,7.3c0,0.2-0.1,0.3-0.4,0.2
			c-0.7-0.6-0.9-1.7-0.4-2.9c0.4-1.1,1.7-3.4,2.4-4.7c-1.4-0.7,0.3-3.6,1.1-3.7c0.7-0.1,0.7,1.2,0.3,2.7
			C210.3,102.5,211,102,211.8,101.3z"/>
		<path class="st0" d="M217.2,108.8c1.9-0.1,3.3-2.1,4.2-3.8c0.1-0.2,0.3-0.2,0.4,0c0.1,0.2,0.1,0.8-0.2,1.5c-0.8,1.5-2.4,2.7-4.2,3
			c-2.9,0.4-4.2-2.3-3.1-5.5c1.1-3.1,3.3-4.6,4.5-4c0.6,0.3,1.1,0.6,1.5,1c0.5,0.5,0.5,1.9-0.4,3.2c-1,1.5-2.4,2.3-4.2,1.1
			C215.3,107.5,216,108.8,217.2,108.8z M218.5,103.3c0.6-1,1-2.3,0.6-2.5c-0.5-0.3-2.3,1.3-3.1,3.5c-0.1,0.1-0.1,0.3-0.1,0.4
			C217.1,105.3,217.9,104.2,218.5,103.3z"/>
		<path class="st0" d="M231.7,98.2c0.3-0.1,0.5,0.2,0.4,0.7c-0.1,0.9-0.3,2-1.5,4.5c-1.2,2.8-2.7,4.7-4.2,4.8
			c-1,0.1-1.6-0.7-1.7-1.7c-0.6,1-1.5,2-2.6,2.1c-1.4,0.1-1.8-1.4-1.4-3.1c0.4-1.6,1.2-3.9,2.5-6.2c0.2-0.3,0.4-0.3,0.5-0.1
			c0.6,0.7,0.6,1.7-0.1,3.1c-0.7,1.4-1.1,2.5-1.5,3.7c-0.3,1.2-0.2,2,0.3,1.9c0.9-0.1,1.6-1.7,2.6-3.9c1.2-2.5,1.7-4.1,2.3-5.2
			c0.2-0.3,0.3-0.4,0.6-0.2c0.4,0.4,0.7,1.4,0.2,2.6c-0.4,1.1-1.3,2.9-1.8,4.2c-0.5,1.4-0.3,2.1,0.4,2.1c0.8-0.1,2-1.7,3-4
			C229.9,100.1,231.3,98.4,231.7,98.2z"/>
		<path class="st0" d="M233.1,107.5c-0.2,0.4-0.9,0.3-1.3-0.2c-0.4-0.5-0.4-1.2-0.1-1.7c0.3-0.4,1-0.2,1.4,0.4
			C233.4,106.5,233.3,107.1,233.1,107.5z M237.3,92.6c0.4,0.6,0.5,1.7-0.3,3.5c-1,2.4-2.5,6.2-3.4,8.8c-0.1,0.2-0.2,0.3-0.4,0.1
			c-0.4-0.3-0.7-1-0.4-2.5c0.6-2.5,2.4-7.3,3.8-10C236.9,92.3,237.2,92.3,237.3,92.6z"/>
	</g>
	<g>
		<path class="st0" d="M73.7,18.9l6.3-0.7l7.5,10.1l4.9-11.5l6.3-0.7l3.2,28.2l-7.6,0.9L93.2,35l-3.9,9l-5.9-7.9l1.2,10.1L77,47.1
			L73.7,18.9z"/>
		<path class="st0" d="M108.4,15l5.7-0.7l12.3,27.1l-7.5,0.9l-1.1-2.4l-7.2,0.8l-0.5,2.6l-7.5,0.9L108.4,15z M115.1,33.9l-2.2-4.8
			l-1,5.1L115.1,33.9z"/>
		<path class="st0" d="M123.7,13.2l7.7-0.9l0.8,6.5l3.8-7l9.3-1.1l-6.9,13.9L149,38.8l-9.2,1.1l-6.1-8.1l1,8.7l-7.7,0.9L123.7,13.2z
			"/>
		<path class="st0" d="M146.4,10.6l8.1-0.9l3.2,28.2l-8.1,0.9L146.4,10.6z"/>
		<path class="st0" d="M157,9.3l6.3-0.7l7.8,10.1l-1.3-10.9l7.5-0.9l3.2,28.2l-6.3,0.7l-7.8-10.1l1.2,10.8l-7.5,0.9L157,9.3z"/>
		<path class="st0" d="M196.2,14.5c-0.5-0.4-1.1-0.7-1.7-0.8c-0.7-0.2-1.3-0.2-1.9-0.1c-0.7,0.1-1.3,0.3-1.8,0.7
			c-0.5,0.4-1,0.8-1.3,1.4c-0.4,0.6-0.6,1.2-0.8,2c-0.2,0.8-0.2,1.6-0.1,2.4c0.1,0.8,0.3,1.6,0.7,2.3c0.3,0.7,0.8,1.3,1.3,1.8
			c0.5,0.5,1.1,0.8,1.7,1c0.6,0.2,1.3,0.3,2,0.2c0.8-0.1,1.5-0.4,2.2-0.9c0.6-0.5,1.1-1.1,1.5-1.9l-2.1,0.2L195,17l9.2-1.1l1.1,9.4
			c-0.4,1.2-1,2.3-1.6,3.4c-0.7,1-1.4,1.9-2.3,2.7c-0.9,0.8-1.8,1.4-2.9,1.9s-2.2,0.8-3.3,0.9c-1.7,0.2-3.4,0-5-0.6
			c-1.6-0.6-3.1-1.5-4.4-2.7c-1.3-1.2-2.4-2.7-3.2-4.4c-0.9-1.7-1.4-3.6-1.7-5.7c-0.2-2-0.1-4,0.3-5.9c0.4-1.9,1.1-3.5,2-5
			s2.1-2.7,3.5-3.6c1.4-0.9,3-1.5,4.7-1.7c1.3-0.2,2.5-0.1,3.5,0.1c1,0.2,1.9,0.5,2.6,0.8c0.8,0.4,1.6,0.8,2.1,1.3L196.2,14.5z"/>
		<path class="st0" d="M212,3l8.1-0.9l3.2,28.2l-8.1,0.9L212,3z"/>
		<path class="st0" d="M226.6,8.8l-4.4,0.5l-0.9-7.4L238.1,0l0.9,7.4l-4.4,0.5l2.4,20.8l-7.9,0.9L226.6,8.8z"/>
		<path class="st0" d="M69.2,70.5L64.8,71L64,63.6l16.7-1.9l0.9,7.4l-4.4,0.5l2.4,20.8l-7.9,0.9L69.2,70.5z"/>
		<path class="st0" d="M86.3,61l5.7-0.7l12.3,27.1l-7.5,0.9L95.7,86l-7.2,0.8L88,89.4l-7.5,0.9L86.3,61z M93,80l-2.2-4.8l-1,5.1
			L93,80z"/>
		<path class="st0" d="M103.8,78.7c0.5,0.1,1.1,0.2,1.7,0.3c0.5,0.1,1,0.1,1.7,0.2c0.6,0,1.2,0,1.9-0.1c1.1-0.1,1.6-0.7,1.5-1.6
			c0-0.4-0.3-0.7-0.6-1.1c-0.4-0.3-0.9-0.7-1.4-1.1c-0.6-0.4-1.2-0.9-1.8-1.4c-0.7-0.5-1.3-1.1-1.9-1.8c-0.6-0.7-1.1-1.4-1.6-2.3
			c-0.4-0.9-0.7-1.9-0.9-3.1c-0.2-1.3-0.1-2.5,0.2-3.6c0.3-1.1,0.8-2,1.4-2.7c0.6-0.8,1.4-1.4,2.3-1.8c0.9-0.5,1.9-0.8,3-0.9
			c0.6-0.1,1.2-0.1,1.7-0.1s1.1,0,1.6,0c0.5,0,1.1,0,1.6,0.1l0.9,7.9c-0.2,0-0.4,0-0.7,0c-0.2,0-0.4,0-0.7,0c-0.2,0-0.5,0-0.8,0
			c-0.1,0-0.3,0-0.5,0.1c-0.2,0-0.4,0.1-0.6,0.2c-0.2,0.1-0.3,0.2-0.5,0.4s-0.2,0.4-0.1,0.6c0,0.2,0.2,0.5,0.6,0.8
			c0.4,0.3,0.8,0.7,1.3,1c0.5,0.4,1.1,0.9,1.7,1.4c0.6,0.5,1.2,1.1,1.8,1.9c0.6,0.7,1,1.5,1.5,2.4c0.4,0.9,0.7,2,0.9,3.2
			c0.1,1.2,0.1,2.4-0.1,3.5c-0.2,1.1-0.6,2.1-1.2,3c-0.6,0.9-1.4,1.6-2.5,2.2c-1,0.6-2.3,1-3.8,1.1c-0.9,0.1-1.8,0.2-2.5,0.1
			c-0.8,0-1.5,0-2.1-0.1c-0.7-0.1-1.4-0.2-2-0.3L103.8,78.7z"/>
		<path class="st0" d="M120.7,64.6l-4.4,0.5l-0.9-7.4l16.7-1.9l0.9,7.4l-4.4,0.5l2.4,20.8l-7.9,0.9L120.7,64.6z"/>
		<path class="st0" d="M133.4,55.6l14.1-1.6l0.9,7.4l-6.4,0.7l0.4,3.1l6.3-0.7l0.8,7l-6.3,0.7l0.4,3.3l6.7-0.8l0.9,7.4l-14.3,1.7
			L133.4,55.6z"/>
		<path class="st0" d="M173.3,60.7c-0.5-0.4-1.1-0.7-1.7-0.8c-0.7-0.2-1.3-0.2-1.9-0.1c-0.7,0.1-1.3,0.3-1.8,0.7
			c-0.5,0.4-1,0.8-1.3,1.4c-0.4,0.6-0.6,1.2-0.8,2c-0.2,0.8-0.2,1.6-0.1,2.4c0.1,0.8,0.3,1.6,0.7,2.3c0.3,0.7,0.8,1.3,1.3,1.8
			c0.5,0.5,1.1,0.8,1.7,1c0.6,0.2,1.3,0.3,2,0.2c0.8-0.1,1.5-0.4,2.2-0.9c0.6-0.5,1.1-1.1,1.5-1.9l-2.1,0.2l-0.7-5.9l9.2-1.1
			l1.1,9.4c-0.4,1.2-1,2.3-1.6,3.4c-0.7,1-1.4,1.9-2.3,2.7s-1.8,1.4-2.9,1.9c-1.1,0.5-2.2,0.8-3.3,0.9c-1.7,0.2-3.4,0-5-0.6
			c-1.6-0.6-3.1-1.5-4.4-2.7c-1.3-1.2-2.4-2.7-3.2-4.4c-0.9-1.7-1.4-3.6-1.7-5.7c-0.2-2-0.1-4,0.3-5.9c0.4-1.9,1.1-3.5,2-5
			c0.9-1.5,2.1-2.7,3.5-3.6c1.4-0.9,3-1.5,4.7-1.7c1.3-0.2,2.5-0.1,3.5,0.1s1.9,0.5,2.6,0.8c0.8,0.4,1.6,0.8,2.1,1.3L173.3,60.7z"/>
		<path class="st0" d="M183.1,64.2c-0.2-2-0.1-4,0.3-5.9c0.4-1.9,1.2-3.6,2.1-5c1-1.5,2.2-2.7,3.6-3.6c1.4-1,3-1.5,4.7-1.7
			c1.7-0.2,3.4,0,5,0.6c1.6,0.6,3.1,1.5,4.4,2.7c1.3,1.2,2.4,2.7,3.2,4.4c0.9,1.7,1.4,3.6,1.6,5.6c0.2,2,0.1,4-0.3,5.9
			c-0.4,1.9-1.2,3.6-2.1,5c-1,1.5-2.2,2.7-3.6,3.6c-1.4,1-3,1.5-4.7,1.7c-1.7,0.2-3.4,0-5-0.6c-1.6-0.6-3.1-1.5-4.4-2.7
			c-1.3-1.2-2.4-2.7-3.2-4.4C183.9,68.1,183.3,66.2,183.1,64.2z M190.6,63.3c0.1,0.8,0.3,1.6,0.7,2.3c0.3,0.7,0.8,1.3,1.3,1.8
			c0.5,0.5,1.1,0.8,1.7,1.1c0.6,0.2,1.3,0.3,2,0.2c0.7-0.1,1.3-0.3,1.9-0.7c0.6-0.4,1.1-0.9,1.4-1.5s0.7-1.3,0.9-2
			c0.2-0.7,0.2-1.5,0.1-2.3c-0.1-0.8-0.3-1.6-0.7-2.3c-0.3-0.7-0.8-1.3-1.3-1.8c-0.5-0.5-1.1-0.8-1.7-1.1c-0.6-0.2-1.3-0.3-2-0.2
			c-0.7,0.1-1.3,0.3-1.9,0.7s-1.1,0.9-1.4,1.5c-0.4,0.6-0.7,1.3-0.9,2C190.5,61.7,190.5,62.5,190.6,63.3z"/>
		<path class="st0" d="M209.6,61.1c-0.2-2-0.1-4,0.3-5.9c0.4-1.9,1.2-3.6,2.1-5c1-1.5,2.2-2.7,3.6-3.6c1.4-1,3-1.5,4.7-1.7
			c1.7-0.2,3.4,0,5,0.6c1.6,0.6,3.1,1.5,4.4,2.7c1.3,1.2,2.4,2.7,3.2,4.4c0.9,1.7,1.4,3.6,1.6,5.6c0.2,2,0.1,4-0.3,5.9
			c-0.4,1.9-1.2,3.6-2.1,5c-1,1.5-2.2,2.7-3.6,3.6c-1.4,1-3,1.5-4.7,1.7c-1.7,0.2-3.4,0-5-0.6c-1.6-0.6-3.1-1.5-4.4-2.7
			c-1.3-1.2-2.4-2.7-3.2-4.4C210.4,65.1,209.8,63.2,209.6,61.1z M217.1,60.3c0.1,0.8,0.3,1.6,0.7,2.3c0.3,0.7,0.8,1.3,1.3,1.8
			c0.5,0.5,1.1,0.8,1.7,1.1c0.6,0.2,1.3,0.3,2,0.2c0.7-0.1,1.3-0.3,1.9-0.7c0.6-0.4,1.1-0.9,1.4-1.5c0.4-0.6,0.7-1.3,0.9-2
			c0.2-0.7,0.2-1.5,0.1-2.3c-0.1-0.8-0.3-1.6-0.7-2.3c-0.3-0.7-0.8-1.3-1.3-1.8c-0.5-0.5-1.1-0.8-1.7-1.1c-0.6-0.2-1.3-0.3-2-0.2
			c-0.7,0.1-1.3,0.3-1.9,0.7s-1.1,0.9-1.4,1.5c-0.4,0.6-0.7,1.3-0.9,2C217,58.7,217,59.5,217.1,60.3z"/>
		<path class="st0" d="M238.2,72.1L235,43.9l6.6-0.8c2.2-0.3,4.3-0.2,6.1,0.2c1.8,0.4,3.4,1.1,4.7,2.2c1.3,1,2.4,2.4,3.3,4.1
			c0.8,1.7,1.4,3.7,1.7,6c0.3,2.3,0.2,4.4-0.2,6.2c-0.4,1.8-1.2,3.4-2.2,4.7c-1.1,1.3-2.4,2.4-4.1,3.2c-1.7,0.8-3.7,1.3-5.9,1.6
			L238.2,72.1z M244.9,63.2c1.8-0.2,3.1-0.9,4-2c0.9-1.1,1.2-2.7,0.9-4.8s-0.9-3.5-2-4.4s-2.5-1.2-4.3-1L244.9,63.2z"/>
	</g>
	<g>
		<path class="st0" d="M0.7,55.9C1,56,1.3,56,1.6,56c0.3,0,0.5,0.1,0.9,0.1c0.3,0,0.7,0,1-0.1c0.6-0.1,0.8-0.3,0.8-0.7
			c0-0.2-0.1-0.3-0.3-0.5c-0.2-0.1-0.4-0.3-0.7-0.5c-0.3-0.2-0.6-0.4-0.9-0.6c-0.3-0.2-0.7-0.5-1-0.8c-0.3-0.3-0.6-0.6-0.8-1
			c-0.2-0.4-0.4-0.8-0.4-1.4C0,50,0,49.4,0.2,48.9c0.2-0.5,0.4-0.9,0.8-1.2c0.3-0.3,0.8-0.6,1.3-0.8c0.5-0.2,1-0.4,1.6-0.4
			c0.3,0,0.6-0.1,0.9-0.1c0.3,0,0.6,0,0.8,0c0.3,0,0.6,0,0.8,0l0.4,3.5c-0.1,0-0.2,0-0.3,0c-0.1,0-0.2,0-0.3,0c-0.1,0-0.3,0-0.4,0
			c-0.1,0-0.2,0-0.3,0c-0.1,0-0.2,0-0.3,0.1s-0.2,0.1-0.2,0.2c-0.1,0.1-0.1,0.2-0.1,0.3c0,0.1,0.1,0.2,0.3,0.3
			c0.2,0.1,0.4,0.3,0.7,0.5c0.3,0.2,0.6,0.4,0.9,0.6c0.3,0.2,0.6,0.5,0.9,0.8c0.3,0.3,0.5,0.7,0.8,1.1c0.2,0.4,0.4,0.9,0.4,1.4
			c0.1,0.6,0,1.1-0.1,1.6c-0.1,0.5-0.3,1-0.7,1.4c-0.3,0.4-0.8,0.7-1.3,1s-1.2,0.5-2,0.5c-0.5,0.1-0.9,0.1-1.3,0.1
			c-0.4,0-0.8,0-1.1,0c-0.4,0-0.7-0.1-1-0.1L0.7,55.9z"/>
		<path class="st0" d="M8.5,46.2l4.3-0.5l1.4,12.6L10,58.8L8.5,46.2z"/>
		<path class="st0" d="M14.1,45.6l3.3-0.4l4,4.4l-0.6-4.8l3.9-0.5l1.4,12.6l-3.3,0.4l-4-4.4l0.6,4.8l-3.9,0.5L14.1,45.6z"/>
		<path class="st0" d="M26.6,50.5c-0.1-1,0-1.9,0.2-2.8c0.3-0.9,0.7-1.6,1.2-2.2c0.5-0.6,1.2-1.2,2-1.6c0.8-0.4,1.6-0.7,2.5-0.8
			c0.7-0.1,1.4-0.1,1.9,0c0.6,0.1,1.1,0.2,1.5,0.3c0.5,0.1,0.9,0.3,1.3,0.5l-1.6,3.7c-0.2-0.1-0.5-0.2-0.7-0.4
			c-0.2-0.1-0.5-0.1-0.8-0.2c-0.3-0.1-0.6-0.1-1,0c-0.4,0-0.7,0.2-1.1,0.3c-0.3,0.2-0.6,0.4-0.8,0.7c-0.2,0.3-0.4,0.6-0.5,0.9
			c-0.1,0.3-0.1,0.7-0.1,1.1c0,0.4,0.2,0.7,0.3,1c0.2,0.3,0.4,0.6,0.7,0.8c0.3,0.2,0.6,0.4,1,0.5c0.4,0.1,0.7,0.1,1.1,0.1
			c0.4,0,0.8-0.1,1.1-0.3c0.3-0.1,0.6-0.3,0.8-0.4c0.2-0.2,0.4-0.4,0.6-0.6l2.4,3.3c-0.3,0.3-0.7,0.6-1.1,0.9
			c-0.4,0.2-0.8,0.4-1.4,0.7c-0.5,0.2-1.2,0.4-1.9,0.5c-1,0.1-1.9,0.1-2.8-0.2c-0.9-0.2-1.6-0.6-2.3-1.1c-0.7-0.5-1.2-1.1-1.7-1.9
			C26.9,52.4,26.7,51.5,26.6,50.5z"/>
		<path class="st0" d="M37.7,42.8l7.4-0.9l0.4,3.3l-3.4,0.4l0.2,1.4l3.3-0.4l0.4,3.1l-3.3,0.4l0.2,1.5l3.5-0.4l0.4,3.3l-7.5,0.9
			L37.7,42.8z"/>
	</g>
	<g>
		<path class="st0" d="M268.8,22.8c0.2-0.5,0.3-0.9,0.4-1.2s0.1-0.5,0-0.7c0-0.4-0.2-0.7-0.5-0.9c-0.3-0.2-0.7-0.3-1.2-0.2
			c-0.1,0-0.2,0-0.3,0c-0.1,0-0.2,0-0.2,0.1c-0.1,0-0.2,0-0.2,0l-0.4-3.5c0.2-0.1,0.3-0.1,0.5-0.1c0.1,0,0.3-0.1,0.4-0.1
			c0.1,0,0.3-0.1,0.4-0.1c0.1,0,0.3,0,0.5-0.1c0.6-0.1,1.2-0.1,1.8,0c0.6,0.1,1.1,0.2,1.6,0.5c0.5,0.2,0.9,0.6,1.3,1.1
			c0.3,0.5,0.6,1.1,0.6,1.8c0,0.3,0,0.7,0,1c0,0.3-0.1,0.7-0.2,1.1c-0.1,0.4-0.3,0.9-0.5,1.4c-0.2,0.5-0.4,1.1-0.7,1.8l-0.2,0.5
			l2.4-0.3l-0.7,3.4l-7.3,0.8L268.8,22.8z"/>
		<path class="st0" d="M284.4,20.8c0.2,2.1,0,3.8-0.8,5.1c-0.8,1.2-1.9,1.9-3.5,2.1c-1.6,0.2-2.9-0.2-3.9-1.3c-1-1-1.7-2.6-1.9-4.7
			c-0.2-2.1,0-3.8,0.8-5.1c0.8-1.2,1.9-1.9,3.5-2.1c1.6-0.2,2.9,0.2,3.9,1.3C283.6,17.1,284.2,18.6,284.4,20.8z M280.6,21.2
			c-0.2-2-0.7-2.9-1.5-2.8c-0.8,0.1-1.1,1.1-0.9,3.1c0.2,2,0.7,2.9,1.5,2.8C280.5,24.2,280.8,23.2,280.6,21.2z"/>
		<path class="st0" d="M285.7,19.2l-1.9-1.8l2.4-3.2l3-0.3l1.4,12.6l-4.1,0.5L285.7,19.2z"/>
		<path class="st0" d="M291.1,21.7c-0.1-0.5-0.1-1.1,0-1.6c0.1-0.5,0.1-1,0.3-1.5c0.1-0.5,0.3-1,0.5-1.4c0.2-0.4,0.4-0.9,0.6-1.3
			c0.5-0.9,1.1-1.8,1.7-2.6l4.6-0.5c-0.3,0.3-0.5,0.7-0.8,1.1c-0.2,0.3-0.5,0.7-0.7,1.2c-0.3,0.5-0.5,1-0.7,1.5
			c0.6,0,1.1,0.2,1.6,0.4c0.5,0.2,0.9,0.5,1.3,0.9c0.4,0.4,0.7,0.8,0.9,1.3c0.2,0.5,0.4,1,0.5,1.6c0.1,0.7,0,1.3-0.1,1.9
			c-0.2,0.6-0.4,1.1-0.8,1.6c-0.4,0.5-0.8,0.9-1.4,1.2c-0.5,0.3-1.2,0.5-1.8,0.6c-0.7,0.1-1.4,0-2-0.1s-1.2-0.5-1.7-0.9
			s-0.9-0.9-1.2-1.5C291.4,23,291.1,22.4,291.1,21.7z M294.8,21.3c0,0.3,0.2,0.6,0.4,0.8c0.2,0.2,0.5,0.3,0.8,0.2
			c0.3,0,0.6-0.2,0.8-0.4c0.2-0.2,0.3-0.5,0.2-0.8s-0.2-0.6-0.4-0.8c-0.2-0.2-0.5-0.3-0.8-0.2c-0.3,0-0.6,0.2-0.8,0.4
			C294.8,20.8,294.8,21,294.8,21.3z"/>
	</g>
</g>
</svg>
