<?xml version="1.0" encoding="utf-8"?>
<!-- Generator: Adobe Illustrator 19.1.0, SVG Export Plug-In . SVG Version: 6.00 Build 0)  -->
<svg version="1.1" id="Layer_1" xmlns="http://www.w3.org/2000/svg" xmlns:xlink="http://www.w3.org/1999/xlink" x="0px" y="0px"
	 viewBox="0 0 36 34" style="enable-background:new 0 0 36 34;" xml:space="preserve">
<style type="text/css">
	.st0{fill:#E35D26;}
</style>
<g>
	<g>
		<g>
			<path class="st0" d="M6,26.9l1.5,0l0.8,2.4c0.1,0.4,0.3,0.9,0.3,0.9h0c0,0,0.2-0.6,0.3-0.9l0.8-2.4l1.5,0l0.5,5.7l-1.4,0L10.2,30
				c0-0.4,0-1,0-1h0c0,0-0.2,0.6-0.3,1l-0.6,1.7l-1.2,0L7.4,30c-0.1-0.4-0.3-1-0.3-1h0c0,0,0,0.5,0,1l-0.2,2.6l-1.4,0L6,26.9z"/>
			<path class="st0" d="M13.7,26.9l3.6,0v1.2l-2.2,0v1l1.7,0v1.2l-1.7,0v1.1l2.3,0l0,1.2l-3.7,0L13.7,26.9z"/>
			<path class="st0" d="M19.2,26.9l1.4,0l1.6,2.7c0.2,0.4,0.5,1,0.5,1h0c0,0-0.1-0.6-0.1-1l0-2.7l1.4,0l0,5.7l-1.4,0l-1.6-2.7
				c-0.2-0.4-0.5-1-0.5-1h0c0,0,0.1,0.6,0.1,1l0,2.7l-1.4,0L19.2,26.9z"/>
			<path class="st0" d="M26.1,26.9l1.4,0l0,3.6c0,0.6,0.4,0.9,1,0.9c0.6,0,1-0.3,1-0.9l0-3.6l1.4,0l0,3.6c0,1.3-0.9,2.2-2.4,2.2
				c-1.5,0-2.4-0.9-2.4-2.2L26.1,26.9z"/>
		</g>
	</g>
	<path class="st0" d="M29.6,5.1H6.4c-0.9,0-1.7-0.8-1.7-1.7v0c0-0.9,0.8-1.7,1.7-1.7h23.2c0.9,0,1.7,0.8,1.7,1.7v0
		C31.3,4.3,30.5,5.1,29.6,5.1z"/>
	<path class="st0" d="M29.6,12.7H6.4c-0.9,0-1.7-0.8-1.7-1.7v0c0-0.9,0.8-1.7,1.7-1.7h23.2c0.9,0,1.7,0.8,1.7,1.7v0
		C31.3,11.9,30.5,12.7,29.6,12.7z"/>
	<path class="st0" d="M29.6,20.3H6.4c-0.9,0-1.7-0.8-1.7-1.7v0c0-0.9,0.8-1.7,1.7-1.7h23.2c0.9,0,1.7,0.8,1.7,1.7v0
		C31.3,19.6,30.5,20.3,29.6,20.3z"/>
</g>
</svg>
