<?xml version="1.0" encoding="utf-8"?>
<!-- Generator: Adobe Illustrator 19.1.0, SVG Export Plug-In . SVG Version: 6.00 Build 0)  -->
<svg version="1.1" id="Layer_1" xmlns="http://www.w3.org/2000/svg" xmlns:xlink="http://www.w3.org/1999/xlink" x="0px" y="0px"
	 viewBox="-296 387.8 19 19" style="enable-background:new -296 387.8 19 19;" xml:space="preserve">
<style type="text/css">
	.st0{fill:#FFFFFF;}
</style>
<g>
	<path class="st0" d="M-286.5,392.8c-0.2,0-0.4-0.1-0.4-0.3c-0.1-0.5,0-1,0.2-1.3c0.1-0.3,0.2-0.7,0-1c-0.1-0.1-0.1-0.4,0.1-0.5
		c0.2-0.1,0.5-0.1,0.6,0c0.3,0.5,0.3,1.1,0.1,1.8c-0.2,0.3-0.2,0.6-0.2,0.8S-286.2,392.8-286.5,392.8L-286.5,392.8z"/>
	<path class="st0" d="M-288.9,392.8c-0.2,0-0.4-0.1-0.4-0.3c-0.1-0.5,0.1-1,0.2-1.3c0.1-0.3,0.2-0.7,0-1c-0.1-0.1-0.1-0.4,0.1-0.5
		s0.5-0.1,0.6,0c0.3,0.5,0.3,1.1,0.1,1.8c-0.1,0.3-0.2,0.5-0.2,0.8C-288.4,392.5-288.6,392.8-288.9,392.8L-288.9,392.8z"/>
	<path class="st0" d="M-284.2,392.8c-0.2,0-0.4-0.1-0.4-0.3c-0.1-0.5,0.1-0.9,0.2-1.3c0.1-0.3,0.2-0.7,0-1c-0.1-0.2-0.1-0.5,0.1-0.6
		c0.2-0.1,0.5-0.1,0.6,0.1c0.3,0.5,0.3,1.1,0.1,1.8c-0.1,0.3-0.2,0.5-0.2,0.8C-283.8,392.5-283.9,392.8-284.2,392.8L-284.2,392.8z"
		/>
	<path class="st0" d="M-286.4,404.7L-286.4,404.7L-286.4,404.7c-2.1,0-4.4-0.7-4.4-2c0-0.3,0.1-0.6,0.5-1c-2.9-1.4-4.7-4.4-4.7-7.7
		c0-0.1,0-0.2,0.1-0.3c0.1,0,0.2-0.1,0.3-0.1l0,0h16.4c0.3,0,0.4,0.2,0.4,0.4c0,3.3-1.9,6.2-4.8,7.6c0.4,0.3,0.5,0.7,0.5,1
		C-282.1,404-284.3,404.7-286.4,404.7z M-294.2,394.4c0.2,3,2,5.6,4.9,6.8c0.2,0,0.3,0.2,0.3,0.4c0,0.2-0.1,0.3-0.3,0.4
		c-0.4,0.2-0.7,0.4-0.7,0.6c0,0.5,1.4,1.2,3.5,1.2v0.4v-0.4c2.1,0,3.5-0.7,3.5-1.2c0-0.2-0.3-0.5-0.7-0.7c-0.2-0.1-0.3-0.2-0.3-0.4
		c0-0.2,0.1-0.3,0.3-0.4c2.9-1.1,4.8-3.7,5-6.7H-294.2z"/>
</g>
</svg>
