<?xml version="1.0" encoding="utf-8"?>
<!-- Generator: Adobe Illustrator 19.2.0, SVG Export Plug-In . SVG Version: 6.00 Build 0)  -->
<svg version="1.1" id="Layer_1" xmlns="http://www.w3.org/2000/svg" xmlns:xlink="http://www.w3.org/1999/xlink" x="0px" y="0px"
	 viewBox="0 0 198 254" style="enable-background:new 0 0 198 254;" xml:space="preserve">
<style type="text/css">
	.st0{fill:#5AC2B9;}
	.st1{fill:#FFFFFF;}
	.st2{fill:#E35D26;}
	.st3{fill:#010101;}
	.st4{fill:#EF976E;}
	.st5{fill:none;}
</style>
<g>
	<g>
		<path id="SVGID_1_" class="st0" d="M20.8,29.7c0-8.5,7-15.5,15.5-15.5l37.6,0.1c8.5,0,15.5,7,15.5,15.5v8.8
			c0,8.5-7,15.5-15.5,15.5L69,54v6l-9.9-6H36.2c-8.5,0-15.5-7-15.5-15.5L20.8,29.7z"/>
	</g>
</g>
<g>
	<path class="st1" d="M33.8,23.2h2.6V29h2.2v2.1h-4.8V23.2z"/>
	<path class="st1" d="M39,23.2h4.6v2.1h-2.1v0.9h2.1v2h-2.1V29h2.2v2.1H39V23.2z"/>
	<path class="st1" d="M45.5,25.3H44v-2.1h5.5v2.1H48v5.8h-2.6L45.5,25.3z"/>
	<path class="st1" d="M50.5,23.2h2.2l-1.3,3.2h-2L50.5,23.2z"/>
	<path class="st1" d="M53,28.7c0.2,0.1,0.4,0.1,0.5,0.1c0.2,0,0.3,0.1,0.5,0.1s0.4,0,0.6,0c0.4,0,0.5-0.1,0.5-0.4
		c0-0.1-0.1-0.2-0.2-0.3c-0.1-0.1-0.2-0.2-0.4-0.4c-0.2-0.1-0.3-0.3-0.5-0.4c-0.2-0.2-0.4-0.3-0.5-0.5c-0.2-0.2-0.3-0.4-0.4-0.7
		c-0.1-0.3-0.2-0.5-0.2-0.9s0.1-0.7,0.2-1c0.1-0.3,0.3-0.5,0.6-0.7c0.2-0.2,0.5-0.3,0.8-0.4s0.7-0.1,1-0.1c0.2,0,0.4,0,0.6,0
		c0.2,0,0.4,0,0.5,0.1c0.2,0,0.3,0,0.5,0.1v2.2c-0.1,0-0.1,0-0.2,0c-0.1,0-0.1,0-0.2,0c-0.1,0-0.2,0-0.2,0s-0.1,0-0.2,0
		c-0.1,0-0.1,0-0.2,0c-0.1,0-0.1,0-0.2,0.1c0,0-0.1,0.1-0.1,0.2s0.1,0.1,0.2,0.2c0.1,0.1,0.2,0.2,0.4,0.3c0.2,0.1,0.3,0.3,0.5,0.4
		c0.2,0.2,0.4,0.4,0.5,0.6c0.2,0.2,0.3,0.5,0.4,0.7c0.1,0.3,0.2,0.6,0.2,0.9s-0.1,0.7-0.2,1c-0.1,0.3-0.3,0.6-0.5,0.8
		c-0.2,0.2-0.5,0.4-0.9,0.5s-0.8,0.2-1.3,0.2c-0.3,0-0.6,0-0.8,0c-0.3,0-0.5-0.1-0.7-0.1s-0.4-0.1-0.6-0.1C53,31.2,53,28.7,53,28.7z
		"/>
	<path class="st1" d="M33.8,35h2.1l2.2,3v-3h2.5v7.9h-2.1l-2.2-3v3h-2.5V35z"/>
	<path class="st1" d="M41.1,39c0-0.6,0.1-1.1,0.3-1.6s0.5-0.9,0.9-1.3s0.8-0.7,1.3-0.9s1-0.3,1.6-0.3s1.1,0.1,1.6,0.3
		s0.9,0.5,1.3,0.9c0.4,0.4,0.7,0.8,0.9,1.3s0.3,1,0.3,1.6s-0.1,1.1-0.3,1.6s-0.5,0.9-0.9,1.3c-0.4,0.4-0.8,0.7-1.3,0.9
		s-1,0.3-1.6,0.3s-1.1-0.1-1.6-0.3s-0.9-0.5-1.3-0.9c-0.4-0.4-0.7-0.8-0.9-1.3C41.3,40.1,41.1,39.5,41.1,39z M43.6,39
		c0,0.2,0,0.4,0.1,0.6c0.1,0.2,0.2,0.4,0.4,0.5c0.1,0.1,0.3,0.3,0.5,0.4c0.2,0.1,0.4,0.1,0.6,0.1c0.2,0,0.4,0,0.6-0.1
		c0.2-0.1,0.4-0.2,0.5-0.4c0.1-0.1,0.3-0.3,0.4-0.5s0.1-0.4,0.1-0.6c0-0.2,0-0.4-0.1-0.6s-0.2-0.4-0.4-0.5c-0.1-0.1-0.3-0.3-0.5-0.4
		c-0.2-0.1-0.4-0.1-0.6-0.1c-0.2,0-0.4,0-0.6,0.1c-0.2,0.1-0.4,0.2-0.5,0.4c-0.1,0.1-0.3,0.3-0.4,0.5C43.7,38.5,43.6,38.7,43.6,39z"
		/>
	<path class="st1" d="M49.9,39c0-0.6,0.1-1.1,0.3-1.6s0.5-0.9,0.9-1.3s0.8-0.7,1.3-0.9s1-0.3,1.6-0.3s1.1,0.1,1.6,0.3
		s0.9,0.5,1.3,0.9c0.4,0.4,0.7,0.8,0.9,1.3s0.3,1,0.3,1.6s-0.1,1.1-0.3,1.6s-0.5,0.9-0.9,1.3c-0.4,0.4-0.8,0.7-1.3,0.9
		s-1,0.3-1.6,0.3s-1.1-0.1-1.6-0.3s-0.9-0.5-1.3-0.9c-0.4-0.4-0.7-0.8-0.9-1.3S49.9,39.5,49.9,39z M52.3,39c0,0.2,0,0.4,0.1,0.6
		c0.1,0.2,0.2,0.4,0.4,0.5c0.1,0.1,0.3,0.3,0.5,0.4c0.2,0.1,0.4,0.1,0.6,0.1c0.2,0,0.4,0,0.6-0.1c0.2-0.1,0.4-0.2,0.5-0.4
		c0.1-0.1,0.3-0.3,0.4-0.5s0.1-0.4,0.1-0.6c0-0.2,0-0.4-0.1-0.6S55.2,38,55,37.9c-0.1-0.1-0.3-0.3-0.5-0.4c-0.2-0.1-0.4-0.1-0.6-0.1
		c-0.2,0-0.4,0-0.6,0.1c-0.2,0.1-0.4,0.2-0.5,0.4c-0.1,0.1-0.3,0.3-0.4,0.5C52.4,38.5,52.3,38.7,52.3,39z"/>
	<path class="st1" d="M58.8,42.9V35H61c0.7,0,1.4,0.1,2,0.2c0.6,0.2,1.1,0.4,1.5,0.7s0.7,0.7,0.9,1.2c0.2,0.5,0.3,1.1,0.3,1.7
		c0,0.6-0.1,1.2-0.3,1.7c-0.2,0.5-0.5,0.9-0.9,1.2s-0.9,0.6-1.5,0.7c-0.6,0.2-1.2,0.3-2,0.3h-2.2V42.9z M61.3,40.6
		c0.6,0,1-0.1,1.4-0.4c0.3-0.3,0.5-0.7,0.5-1.3s-0.2-1-0.5-1.3s-0.8-0.4-1.4-0.4V40.6z"/>
	<path class="st1" d="M66.2,35h2.6v5.8H71v2.1h-4.8C66.2,42.9,66.2,35,66.2,35z"/>
	<path class="st1" d="M71.4,35H76v2.1h-2.1V38H76v2h-2.1v0.9h2.2V43h-4.7V35z"/>
	<path class="st1" d="M76.8,40.9h2.5v2h-2.5V40.9z"/>
</g>
<rect x="105.6" y="179.6" transform="matrix(0.9998 -1.745324e-02 1.745324e-02 0.9998 -3.3605 1.9292)" class="st2" width="6.5" height="27.8"/>
<path class="st2" d="M108.4,205.4v-56.5c0-2.9-2.4-5.3-5.3-5.3h-1.3c-2.9,0-5.3,2.4-5.3,5.3v57.4c-0.4,8-2.2,15.6-5.1,22.4
	c-1.3,3-0.2,6.6,2.7,8.3c2.9,1.7,6.7,0.5,8.3-3.1c3.8-8.6,6.1-18.2,6.4-28.4C108.7,205.4,108.6,205.4,108.4,205.4z"/>
<path class="st2" d="M109,205.4l-2-56.5c-0.1-2.9,2.2-5.4,5.1-5.5h1.3c2.9-0.1,5.4,2.2,5.5,5.1l2,57.3c0.7,8,2.7,15.5,5.9,22.2
	c1.4,3,0.4,6.6-2.4,8.4c-2.8,1.8-6.7,0.8-8.4-2.8c-4.1-8.5-6.7-18-7.4-28.1C108.7,205.4,108.9,205.4,109,205.4z"/>
<path id="XMLID_4357_" class="st2" d="M79.5,137.6H79c-3.2,0-5.7,2.6-5.7,5.7v27.2c-0.4,12.6-10.6,22.8-23.3,23l0,0
	c-0.1,0-0.1,0-0.2,0c-0.1,0-0.2,0-0.3,0l0,0c-2.9,0.3-5.2,2.7-5.2,5.7v0.4c0,3,2.3,5.5,5.2,5.7l0,0c0.1,0,0.2,0,0.3,0s0.1,0,0.2,0
	l0,0c18.1-0.2,32.9-13.9,34.9-31.5c0.2-0.5,0.3-1.1,0.3-1.7v-29C85.2,140.2,82.6,137.6,79.5,137.6z"/>
<path id="XMLID_4358_" class="st2" d="M137.1,137.6h0.4c3.2,0,5.7,2.6,5.7,5.7v27.2c0.4,12.6,10.6,22.8,23.3,23l0,0
	c0.1,0,0.1,0,0.2,0c0.1,0,0.2,0,0.3,0l0,0c2.9,0.3,5.2,2.7,5.2,5.7v0.4c0,3-2.3,5.5-5.2,5.7l0,0c-0.1,0-0.2,0-0.3,0s-0.1,0-0.2,0
	l0,0c-18.1-0.2-32.9-13.9-34.9-31.5c-0.2-0.5-0.3-1.1-0.3-1.7v-29C131.4,140.2,133.9,137.6,137.1,137.6z"/>
<path id="XMLID_4359_" class="st2" d="M96.8,187.5c0-0.7,0.1-1.5,0.1-2.2h-0.1V139c0-3.2-2.6-5.7-5.7-5.7h-0.4
	c-3.2,0-5.7,2.6-5.7,5.7v48.6c-0.5,9.9-4.5,18.8-10.8,25.7l0,0c-2,2.4-1.7,6.1,0.8,8.1l0.3,0.3c2.4,2,6.1,1.7,8.1-0.8l0,0
	c7.4-8.3,12.2-18.9,13.3-30.6c0.1-0.4,0.2-0.9,0.2-1.4v-1.4H96.8z"/>
<path id="XMLID_4360_" class="st2" d="M119.8,187.5c0-0.7-0.1-1.5-0.1-2.2h0.1V139c0-3.2,2.6-5.7,5.7-5.7h0.4c3.2,0,5.7,2.6,5.7,5.7
	v48.6c0.5,9.9,4.5,18.8,10.8,25.7l0,0c2,2.4,1.7,6.1-0.8,8.1l-0.3,0.3c-2.4,2-6.1,1.7-8.1-0.8l0,0c-7.4-8.3-12.2-18.9-13.3-30.6
	c-0.1-0.4-0.2-0.9-0.2-1.4v-1.4H119.8z"/>
<circle id="XMLID_4361_" class="st2" cx="108.3" cy="111.3" r="46.6"/>
<path id="XMLID_4362_" class="st2" d="M67.9,109.2h-0.4c-3.2,0-5.7,2.6-5.7,5.7v43.4c-0.2,3.1-2.8,5.6-5.9,5.6
	c-3.3,0-5.9-2.7-5.9-5.9l0,0c0-3.2-2.6-5.7-5.7-5.7h-0.4c-3.2,0-5.7,2.6-5.7,5.7l0,0l0,0l0,0l0,0c0,9.8,8,17.8,17.8,17.8
	c8.6,0,15.7-6.1,17.4-14.1c0.2-0.6,0.4-1.3,0.4-2V115C73.6,111.8,71,109.2,67.9,109.2z"/>
<path id="XMLID_4363_" class="st2" d="M148.7,109.2h0.4c3.2,0,5.7,2.6,5.7,5.7v43.4c0.2,3.1,2.8,5.6,5.9,5.6c3.3,0,5.9-2.7,5.9-5.9
	l0,0c0-3.2,2.6-5.7,5.7-5.7h0.4c3.2,0,5.7,2.6,5.7,5.7l0,0l0,0l0,0l0,0c0,9.8-8,17.8-17.8,17.8c-8.6,0-15.7-6.1-17.4-14.1
	c-0.2-0.6-0.4-1.3-0.4-2V115C143,111.8,145.5,109.2,148.7,109.2z"/>
<circle id="XMLID_4364_" class="st1" cx="90.8" cy="122" r="11.4"/>
<circle id="XMLID_4365_" class="st3" cx="90.8" cy="122" r="8.4"/>
<circle id="XMLID_4366_" class="st1" cx="126.2" cy="122" r="11.4"/>
<circle id="XMLID_4367_" class="st3" cx="126.2" cy="122" r="8.4"/>
<circle id="XMLID_4368_" class="st4" cx="40.9" cy="161.9" r="1"/>
<circle id="XMLID_4369_" class="st4" cx="42.9" cy="166.4" r="1"/>
<circle id="XMLID_4370_" class="st4" cx="46.5" cy="170.6" r="1"/>
<circle id="XMLID_4371_" class="st4" cx="52" cy="202.8" r="1"/>
<circle id="XMLID_4372_" class="st4" cx="56.7" cy="202.3" r="1"/>
<circle id="XMLID_4373_" class="st4" cx="61.2" cy="201.4" r="1"/>
<circle id="XMLID_4374_" class="st4" cx="65.7" cy="199.4" r="1"/>
<circle id="XMLID_4375_" class="st4" cx="69.4" cy="197" r="1"/>
<circle id="XMLID_4376_" class="st4" cx="72.8" cy="194.3" r="1"/>
<circle id="XMLID_4377_" class="st4" cx="75.4" cy="191.5" r="1"/>
<circle id="XMLID_4378_" class="st4" cx="78" cy="187.9" r="1"/>
<circle id="XMLID_4379_" class="st4" cx="80.3" cy="183.9" r="1"/>
<circle id="XMLID_4380_" class="st4" cx="81.8" cy="179.8" r="1"/>
<circle id="XMLID_4381_" class="st4" cx="82.7" cy="175.8" r="1"/>
<circle id="XMLID_4382_" class="st4" cx="82.1" cy="219.2" r="1"/>
<circle id="XMLID_4383_" class="st4" cx="84.4" cy="216.2" r="1"/>
<circle id="XMLID_4384_" class="st4" cx="86.7" cy="213.1" r="1"/>
<circle id="XMLID_4385_" class="st4" cx="88.7" cy="210" r="1"/>
<circle id="XMLID_4386_" class="st4" cx="90.5" cy="206.1" r="1"/>
<circle id="XMLID_4387_" class="st4" cx="92.1" cy="202.4" r="1"/>
<circle id="XMLID_4388_" class="st4" cx="93.2" cy="198.6" r="1"/>
<circle id="XMLID_4389_" class="st4" cx="94.2" cy="194.9" r="1"/>
<circle id="XMLID_4390_" class="st4" cx="94.8" cy="190.5" r="1"/>
<circle id="XMLID_4391_" class="st4" cx="95.3" cy="185.7" r="1"/>
<circle id="XMLID_4392_" class="st4" cx="95.2" cy="181.6" r="1"/>
<circle id="XMLID_4393_" class="st4" cx="134.6" cy="219.2" r="1"/>
<circle id="XMLID_4394_" class="st4" cx="132.4" cy="216.2" r="1"/>
<circle id="XMLID_4395_" class="st4" cx="130" cy="213.1" r="1"/>
<circle id="XMLID_4396_" class="st4" cx="128.1" cy="210" r="1"/>
<circle id="XMLID_4397_" class="st4" cx="126.2" cy="206.1" r="1"/>
<circle id="XMLID_4398_" class="st4" cx="124.7" cy="202.4" r="1"/>
<circle id="XMLID_4399_" class="st4" cx="123.5" cy="198.6" r="1"/>
<circle id="XMLID_4400_" class="st4" cx="122.6" cy="194.9" r="1"/>
<circle id="XMLID_4401_" class="st4" cx="122" cy="190.5" r="1"/>
<circle id="XMLID_4402_" class="st4" cx="121.5" cy="185.7" r="1"/>
<circle id="XMLID_4403_" class="st4" cx="121.6" cy="181.6" r="1"/>
<circle id="XMLID_4404_" class="st4" cx="111.2" cy="183.8" r="1"/>
<circle id="XMLID_4405_" class="st4" cx="111.2" cy="188" r="1"/>
<circle id="XMLID_4406_" class="st4" cx="116.6" cy="229" r="1"/>
<circle id="XMLID_4407_" class="st4" cx="114.9" cy="225.1" r="1"/>
<circle id="XMLID_4408_" class="st4" cx="113.6" cy="221" r="1"/>
<circle id="XMLID_4409_" class="st4" cx="112.6" cy="216.9" r="1"/>
<circle id="XMLID_4410_" class="st4" cx="111.7" cy="212.8" r="1"/>
<circle id="XMLID_4411_" class="st4" cx="111.3" cy="208.6" r="1"/>
<circle id="XMLID_4412_" class="st4" cx="111.3" cy="204.5" r="1"/>
<circle id="XMLID_4413_" class="st4" cx="111.3" cy="200.4" r="1"/>
<circle id="XMLID_4414_" class="st4" cx="111.3" cy="196.2" r="1"/>
<circle id="XMLID_4415_" class="st4" cx="111.3" cy="192.1" r="1"/>
<circle id="XMLID_4416_" class="st4" cx="105.8" cy="183.9" r="1"/>
<circle id="XMLID_4417_" class="st4" cx="105.8" cy="188" r="1"/>
<circle id="XMLID_4418_" class="st4" cx="101.7" cy="229.1" r="1"/>
<circle id="XMLID_4419_" class="st4" cx="103.2" cy="225" r="1"/>
<circle id="XMLID_4420_" class="st4" cx="104.5" cy="220.9" r="1"/>
<circle id="XMLID_4421_" class="st4" cx="105.5" cy="216.8" r="1"/>
<circle id="XMLID_4422_" class="st4" cx="106" cy="212.8" r="1"/>
<circle id="XMLID_4423_" class="st4" cx="105.8" cy="208.6" r="1"/>
<circle id="XMLID_4424_" class="st4" cx="105.8" cy="204.5" r="1"/>
<circle id="XMLID_4425_" class="st4" cx="105.8" cy="200.4" r="1"/>
<circle id="XMLID_4426_" class="st4" cx="105.8" cy="196.3" r="1"/>
<circle id="XMLID_4427_" class="st4" cx="105.8" cy="192.1" r="1"/>
<circle id="XMLID_4428_" class="st4" cx="164.7" cy="202.8" r="1"/>
<circle id="XMLID_4429_" class="st4" cx="160" cy="202.3" r="1"/>
<circle id="XMLID_4430_" class="st4" cx="155.5" cy="201.4" r="1"/>
<circle id="XMLID_4431_" class="st4" cx="151" cy="199.4" r="1"/>
<circle id="XMLID_4432_" class="st4" cx="147.4" cy="197" r="1"/>
<circle id="XMLID_4433_" class="st4" cx="143.9" cy="194.3" r="1"/>
<circle id="XMLID_4434_" class="st4" cx="141.4" cy="191.5" r="1"/>
<circle id="XMLID_4435_" class="st4" cx="138.7" cy="187.9" r="1"/>
<circle id="XMLID_4436_" class="st4" cx="136.4" cy="183.9" r="1"/>
<circle id="XMLID_4437_" class="st4" cx="135" cy="179.8" r="1"/>
<circle id="XMLID_4438_" class="st4" cx="134" cy="175.8" r="1"/>
<circle id="XMLID_4439_" class="st4" cx="51" cy="172.5" r="1"/>
<circle id="XMLID_4440_" class="st4" cx="55.8" cy="173.5" r="1"/>
<circle id="XMLID_4441_" class="st4" cx="60.7" cy="172.5" r="1"/>
<circle id="XMLID_4442_" class="st4" cx="64.8" cy="169.6" r="1"/>
<circle id="XMLID_4443_" class="st4" cx="68" cy="166.4" r="1"/>
<circle id="XMLID_4444_" class="st4" cx="69.9" cy="161.9" r="1"/>
<circle id="XMLID_4445_" class="st4" cx="146.3" cy="161.9" r="1"/>
<circle id="XMLID_4446_" class="st4" cx="148.2" cy="166.4" r="1"/>
<circle id="XMLID_4447_" class="st4" cx="151.9" cy="170.6" r="1"/>
<circle id="XMLID_4448_" class="st4" cx="156.4" cy="172.5" r="1"/>
<circle id="XMLID_4449_" class="st4" cx="161.1" cy="173.5" r="1"/>
<circle id="XMLID_4450_" class="st4" cx="166.1" cy="172.5" r="1"/>
<circle id="XMLID_4451_" class="st4" cx="170.1" cy="169.6" r="1"/>
<circle id="XMLID_4452_" class="st4" cx="173.3" cy="166.4" r="1"/>
<circle id="XMLID_4453_" class="st4" cx="175.3" cy="161.9" r="1"/>
<g id="XMLID_4454_">
	<path class="st4" d="M116.5,144.2c-4.4,2-9.4,2-13.8,0c-0.4-0.2-0.6-0.7-0.5-1c0.2-0.3,0.3-0.6,0.5-0.9c0.2-0.3,0.6-0.5,1-0.3
		c3.8,1.7,8.1,1.7,11.8,0c0.4-0.2,0.8,0,1,0.3s0.3,0.6,0.5,0.9C117.1,143.5,116.9,144,116.5,144.2z"/>
</g>
<circle class="st1" cx="96.3" cy="117.4" r="3.7"/>
<circle class="st1" cx="131.9" cy="117.4" r="3.7"/>
<rect x="118.1" y="154.3" transform="matrix(0.9998 -1.745324e-02 1.745324e-02 0.9998 -2.8466 2.1158)" class="st2" width="3.4" height="19.7"/>
<rect x="-86.5" y="-40" class="st5" width="45" height="32.5"/>
</svg>
