<?xml version="1.0" encoding="utf-8"?>
<!-- Generator: Adobe Illustrator 19.1.0, SVG Export Plug-In . SVG Version: 6.00 Build 0)  -->
<svg version="1.1" id="Layer_1" xmlns="http://www.w3.org/2000/svg" xmlns:xlink="http://www.w3.org/1999/xlink" x="0px" y="0px"
	 viewBox="0 0 28 36" style="enable-background:new 0 0 28 36;" xml:space="preserve">
<style type="text/css">
	.st0{fill:#E35D26;stroke:#E35D26;stroke-miterlimit:10;}
	.st1{fill:#E35D26;}
</style>
<path class="st0" d="M9.8,17.8c5.3,4.5,8.9,4.4,9.2,4.4c0.9,0,3.7-0.5,4.9-3.3c0.2-0.4,0.3-1.1,0.1-1.4c-0.1-0.1-4.4-2.6-4.6-2.7
	c-0.1-0.1-0.3-0.1-0.4-0.1c-0.2,0-0.4,0.1-0.7,0.4c-0.3,0.3-1.2,1.6-1.5,1.8c-0.3,0.3-0.5,0.4-0.7,0.4c-0.1,0-0.2,0-0.3-0.1
	c-0.1,0-1.1-0.6-3.2-2.2c0,0-1.1-0.9-2.4-2.2S8,9.7,8,9.3c0-0.2,0.1-0.4,0.4-0.7C8.7,8.4,9,8.1,9.4,7.9c0.3-0.2,0.6-0.5,0.9-0.8
	c0.3-0.3,0.4-0.5,0.4-0.7c0-0.1,0-0.3-0.1-0.4c-0.1-0.1-2.7-4.5-2.8-4.6c-0.2-0.2-1-0.1-1.4,0.1c-3.1,1.7-3.4,4-3.3,4.9
	c0,0.9,0.5,5,4.3,9.2L9.8,17.8z"/>
<g>
	<g>
		<path class="st1" d="M7.1,28.8c1.4,0,2.1,0.8,2.1,0.8l-0.6,1.1c0,0-0.6-0.6-1.4-0.6c-1.1,0-1.6,0.8-1.6,1.6c0,0.8,0.6,1.7,1.6,1.7
			c0.9,0,1.5-0.7,1.5-0.7l0.7,1c0,0-0.8,1-2.3,1c-1.8,0-3-1.3-3-3C4.1,30.1,5.4,28.8,7.1,28.8z"/>
		<path class="st1" d="M13.9,33.4l-1.8,0l-0.3,1.2l-1.4,0l1.9-5.7l1.5,0l1.9,5.7l-1.4,0L13.9,33.4z M13,30.2c0,0-0.1,0.6-0.2,1
			l-0.3,1.1l1.1,0l-0.3-1.1C13.2,30.8,13,30.2,13,30.2L13,30.2z"/>
		<path class="st1" d="M17.2,28.9l1.4,0l0,4.5l2.3,0l0,1.2l-3.7,0L17.2,28.9z"/>
		<path class="st1" d="M22.5,28.9l1.4,0l0,4.5l2.3,0l0,1.2l-3.7,0L22.5,28.9z"/>
	</g>
</g>
</svg>
