<?xml version="1.0" encoding="utf-8"?>
<!-- Generator: Adobe Illustrator 19.2.0, SVG Export Plug-In . SVG Version: 6.00 Build 0)  -->
<svg version="1.1" id="Layer_1" xmlns="http://www.w3.org/2000/svg" xmlns:xlink="http://www.w3.org/1999/xlink" x="0px" y="0px"
	 viewBox="0 0 64.3 19" style="enable-background:new 0 0 64.3 19;" xml:space="preserve">
<style type="text/css">
	.st0{fill:#E35D26;}
</style>
<g>
	<path class="st0" d="M14.2,2.4c1,0,1.8,0.8,1.8,1.8v10.5c0,1-0.8,1.8-1.8,1.8H3.7c-1,0-1.8-0.8-1.8-1.8V4.2c0-1,0.8-1.8,1.8-1.8
		C3.7,2.4,14.2,2.4,14.2,2.4z M14.4,8.4h-1.3c0.2,0.4,0.2,0.8,0.2,1.2c0,2.4-1.9,4.3-4.4,4.3c-2.4,0-4.4-1.9-4.4-4.3
		c0-0.5,0.1-0.8,0.2-1.2H3.4v6C3.4,14.7,3.7,15,4,15h9.9c0.3,0,0.6-0.2,0.6-0.6v-6H14.4z M6.1,9.5c0,1.5,1.3,2.7,2.8,2.7
		c1.6,0,2.9-1.2,2.9-2.7c0-1.6-1.3-2.8-2.9-2.8C7.4,6.7,6.1,7.9,6.1,9.5z M12.2,4c-0.3,0-0.6,0.3-0.6,0.6v1.6c0,0.3,0.3,0.6,0.6,0.6
		h1.6c0.4,0,0.6-0.3,0.6-0.6V4.6c0-0.3-0.3-0.6-0.6-0.6H12.2z"/>
	<path class="st0" d="M30.7,6.9V5.4c0-2.3,1.7-4.1,3.8-4.1H37v3.1h-2.5c-0.3,0-0.6,0.4-0.6,1V7H37v3.2h-3.2v7.7h-3.2v-7.7h-2.5V6.9
		H30.7z"/>
	<path class="st0" d="M61.1,6.3c0,0.1,0,0.2,0,0.4c0,4.3-3.3,9.3-9.2,9.3c-1.8,0-3.5-0.5-5-1.5c0.2,0,0.5,0,0.8,0
		c1.5,0,2.9-0.5,4-1.4c-1.4,0-2.6-1-3-2.3c0.2,0.1,0.4,0.1,0.6,0.1c0.3,0,0.6-0.1,0.9-0.1c-1.5-0.3-2.6-1.6-2.6-3.2l0,0
		C47.9,7.8,48.4,8,49,8c-0.9-0.6-1.5-1.6-1.5-2.7c0-0.6,0.2-1.2,0.4-1.6c1.6,2,4,3.3,6.7,3.4c-0.1-0.2-0.1-0.5-0.1-0.7
		c0-1.8,1.5-3.3,3.2-3.3c1,0,1.8,0.4,2.4,1C61,4,61.7,3.6,62.3,3.3C62,4,61.5,4.6,60.9,5.1c0.7-0.1,1.3-0.3,1.9-0.5
		C62.3,5.2,61.7,5.8,61.1,6.3z"/>
</g>
</svg>
